<svg xmlns="http://www.w3.org/2000/svg" height="1024" preserveAspectRatio="none" style="display: block;" version="1.1" viewBox="0 0 2048 2048" width="1024">
<defs>
	<linearGradient gradientUnits="userSpaceOnUse" id="Gradient1" x1="711.441" x2="726.736" y1="914.736" y2="905.558">
		<stop class="stop0" offset="0" stop-color="rgb(0,0,0)" stop-opacity="0.886275"></stop>
		<stop class="stop1" offset="1" stop-color="rgb(20,19,33)" stop-opacity="1"></stop>
	</linearGradient>
	<linearGradient gradientUnits="userSpaceOnUse" id="Gradient2" x1="730.942" x2="761.553" y1="521.32" y2="501.225">
		<stop class="stop0" offset="0" stop-color="rgb(13,11,16)" stop-opacity="1"></stop>
		<stop class="stop1" offset="1" stop-color="rgb(32,33,50)" stop-opacity="1"></stop>
	</linearGradient>
</defs>
<path d="M 1097.26 53.9637 C 1157.73 56.9998 1177.46 109.068 1172.9 163.945 C 1171.67 178.743 1167.26 192.031 1162.6 206.033 C 1224.7 205.998 1276.43 226.187 1333.53 248.219 C 1406.14 276.236 1459.68 289.411 1533.55 256.624 C 1496.83 318.012 1454.41 320.81 1389.02 323.627 C 1394.61 327.535 1400.27 331.351 1405.99 335.074 C 1428.62 349.782 1452.54 363.969 1475.98 377.365 C 1574.81 433.844 1699.67 491.959 1778.12 370.253 C 1778.21 371.229 1778.29 372.207 1778.36 373.186 C 1779.08 384.624 1777.11 394.591 1775.69 405.733 C 1768.5 462.217 1731.27 504.54 1681.38 529.679 C 1645.39 547.814 1611.54 552.859 1571.55 555.464 C 1582.55 562.739 1596.31 569.593 1607.62 576.738 C 1626.52 588.666 1648.69 602.94 1665.61 617.266 C 1707.18 652.473 1744.48 702.012 1792.4 728.643 C 1818.79 743.305 1852.97 752.893 1882.9 744.18 C 1867.41 754.211 1860.18 760.465 1841.95 766.535 C 1800.09 780.47 1758.08 779.074 1718.45 759.905 C 1732.69 788.018 1765.32 832.484 1788.23 853.742 C 1817.73 881.11 1867.96 907.853 1909.34 907.093 C 1933.61 906.647 1964.72 890.218 1980.85 872.542 C 1979.46 876.795 1977.95 881.004 1976.31 885.164 C 1921.71 1019.66 1764.89 1008.54 1653.18 961.646 C 1657.25 973.561 1663.95 986.481 1668.74 998.554 C 1676.02 1016.93 1682.21 1035.02 1688.39 1053.78 C 1707.82 1112.78 1716.67 1179.82 1750.19 1232.97 C 1786.02 1289.81 1830.5 1309.73 1893.08 1323.72 C 1804.26 1353.83 1699.19 1321.12 1630.84 1260.82 C 1619.54 1250.85 1608.58 1240.45 1597.34 1230.39 C 1628.63 1275.64 1644.64 1320.76 1654.49 1374.89 C 1665.54 1435.59 1659.16 1510.22 1697.58 1561.73 C 1705.9 1572.87 1716.76 1582.02 1727.31 1590.86 C 1667.23 1587.42 1607.1 1536.03 1563.72 1497.64 C 1551.29 1486.64 1539.94 1475.24 1526.67 1465.03 C 1527.88 1471.11 1529.02 1477.21 1530.08 1483.33 C 1532.81 1499.8 1532.74 1515.44 1531.74 1532.08 C 1525.24 1639.98 1433.89 1699.58 1376.28 1780.36 C 1402.18 1710.69 1442.37 1602.46 1400.5 1533.49 C 1375.5 1694.43 1274.54 1767.59 1143.7 1843.96 C 1134.29 1849.46 1123.99 1856.48 1114.84 1862.47 C 1082.12 1883.91 1050.84 1907.47 1021.19 1933 C 1055.47 1873.5 1093.64 1818.37 1135.86 1764.28 C 1163.07 1729.42 1196.91 1692.79 1209.68 1649.38 C 1200.95 1658.5 1192.57 1669.27 1184.25 1678.87 C 1139.19 1730.82 1076.1 1760.46 1013.74 1787.18 C 925.171 1825.12 854.301 1861.69 792.226 1937.41 C 793.175 1928.09 795.096 1919.88 797.062 1910.76 C 812.992 1837.75 849.311 1795.86 903.406 1747.27 C 916.859 1735.19 933.039 1724.8 946.634 1712.36 C 929.44 1716.82 915.959 1723.54 899.772 1730.28 C 808.566 1768.23 698.489 1828.95 692.656 1940.46 C 691.746 1957.87 693.861 1975.57 693.853 1992.97 C 606.535 1921.56 644.154 1757.28 711.594 1686.07 C 737.031 1659.21 763.019 1631 786.328 1602.48 C 753.16 1617.45 722.294 1627.45 689.87 1645.78 C 628.484 1680.47 567.792 1738.48 609.609 1812.92 C 593.766 1804.89 580.598 1792.43 571.709 1777.05 C 518.593 1686.34 584.192 1581.98 641.539 1511.83 C 658.075 1491.6 676 1467.63 682.737 1442.19 C 673.886 1448.33 664.385 1459.31 655.153 1464.6 C 623.341 1482.84 586.684 1493.6 564.333 1525.16 C 550.49 1544.71 551.917 1566.3 555.877 1588.78 C 543.904 1578.9 530.52 1560.96 523.869 1546.97 C 516.581 1531.9 513.384 1515.17 514.598 1498.47 C 518.761 1433.59 580.361 1404.59 601.301 1347.91 C 612.031 1318.87 605.396 1281.7 586.038 1257.67 C 571.568 1239.7 552.527 1230.05 530.997 1222.71 C 504.017 1240.3 472.441 1269.59 511.019 1297.01 C 522.826 1305.4 535.153 1308.35 548.852 1312.23 C 535.697 1318.31 524.094 1322.62 509.79 1325.34 C 503.687 1326.49 496.412 1326.62 491.02 1328.29 L 490.45 1329.93 C 495.727 1337.95 540.371 1342.66 550.553 1343.82 C 514.103 1372.42 454.975 1381.68 411.04 1367.94 C 397.823 1363.8 383.536 1357 370.67 1351.45 C 388.212 1372.97 397.261 1380.09 420.016 1394.58 C 371.864 1402 320.239 1393.9 292.672 1348.98 C 287.137 1339.96 282.245 1325.48 278.033 1315.38 C 275.383 1338.69 276.133 1351.26 282.571 1373.44 C 269.609 1363.65 258.61 1353.74 251.361 1338.99 C 228.708 1292.89 243.309 1263.71 256.496 1221.13 C 245.031 1201.23 246.546 1194.46 260.817 1177.67 C 239.662 1140.41 241.693 1109.51 262.91 1073.11 C 268.149 1098.48 279.86 1131.86 303.78 1145.38 C 308.456 1114.13 305.718 1094.84 337.114 1076.17 L 336.603 1078.87 C 346.487 1053.93 341.389 1031.3 348.674 1006.27 C 352.727 992.344 364.169 982.199 369.782 969.891 C 375.776 956.747 371.074 934.74 365.772 921.645 C 350.734 884.504 325.038 850.857 287.824 834.385 C 264.391 877.873 272.777 909.77 285.257 955.488 C 282.659 953.898 280.145 952.175 277.723 950.327 C 241.113 922.259 214.49 878.695 208.576 832.654 C 202.007 830.46 196.228 829.117 189.503 827.504 C 178.824 857.175 184.772 899.374 188.794 930.424 C 139.922 899.189 118.874 855.689 105.156 803.595 C 102.37 793.011 85.7818 778.753 86.506 763.413 C 87.8147 735.69 88.931 709.106 89.8885 681.434 C 90.3153 667.624 94.7997 651.47 92.5613 637.966 C 91.2821 630.249 82.5913 616.688 78.6475 609.62 C 84.0279 601.264 92.995 593.305 99.9634 586.623 C 132.078 555.83 173.095 546.235 212.515 529.102 C 222.732 524.662 230.436 514.511 245.557 508.896 C 263.844 502.104 302.121 495.443 316.901 485.788 C 334.115 474.543 344.2 447.659 368.869 436.34 C 386.32 427.695 403.003 424.03 421.835 418.834 C 452.053 410.498 492.17 394.447 510.883 367.948 C 523.348 350.297 520.572 326.728 516.128 306.904 C 533.51 314.533 549.029 327.051 559.181 343.164 C 584.699 249.797 613.808 217.086 707.229 190.264 C 676.31 215.81 656.201 241.067 668.42 282.485 C 733.334 207.832 819.773 177.779 917.155 173.454 C 966.681 173.826 1009.74 180.376 1057.68 163.413 C 1108.61 145.392 1137.13 102.284 1097.26 53.9637 z M 535.536 339.484 C 533.343 365.082 527.584 379.123 507.83 395.894 C 469.927 428.073 421.929 432.762 377.676 450.318 C 354.054 459.688 344.194 493.984 322.592 505.953 C 308.229 513.546 278.58 516.224 261.513 521.746 C 242.229 527.987 233.75 535.536 216.241 544.81 C 211.833 547.144 194.067 552.643 188.611 554.596 C 159.163 565.133 136.244 573.646 114.071 596.362 C 156.749 592.037 190.95 592.005 232.934 603.323 C 247.047 596.065 260.936 588.381 274.581 580.28 C 287.178 572.664 302.954 561.933 315.851 556.03 C 293.863 580.641 257.844 602.469 228.547 618.556 C 221.981 622.162 204.461 625.077 196.698 628.738 C 168.288 642.137 145.26 673.721 130.688 700.127 C 140.187 736.116 147.267 752.808 182.519 772.896 C 213.396 790.492 259.556 809.236 294.839 812.204 C 315.298 813.925 332.093 806.139 351.195 804.85 C 397.596 801.718 443.863 815.019 466.513 858.757 C 475.482 876.077 477.665 887.6 484.221 903.991 C 492.928 922.683 502.638 938.036 508.45 957.905 C 523.619 1009.77 507.484 1048.53 480.175 1092.31 C 463.602 1117.64 451.253 1144.48 434.595 1169.77 C 421.087 1190.28 395.74 1203.03 373.29 1210.32 C 325.902 1225.7 320.047 1182.25 280.418 1183.26 C 273.044 1183.45 265.016 1193.54 260.961 1199.47 C 288.794 1188.09 295.896 1200.71 318.594 1212.99 C 344.757 1227.14 376.4 1228.77 403.809 1217.44 C 452.744 1198.23 464.943 1153.62 487.077 1111.47 C 498.343 1090.01 515.014 1066.46 524.263 1044.37 C 546.991 990.11 545.421 943.86 524.122 890.003 C 522.452 885.883 520.679 881.807 518.804 877.777 C 533.327 899.729 551.711 917.275 555.983 944.027 C 558.079 957.147 558.603 970.48 560.561 983.607 C 562.183 994.482 567.501 1006.47 565.121 1017.44 C 562.176 1031.01 552.397 1042.42 545.749 1054.34 C 539.5 1065.54 536.22 1078.15 529.671 1089.28 C 510.98 1121.06 447.143 1201.46 417.389 1219.88 C 395.094 1233.68 367.051 1239.22 341.434 1232.86 C 323.468 1228.4 309.013 1217.55 291.873 1212.04 C 262.549 1234.16 247.17 1290.26 263.24 1323.96 C 266.301 1288.25 286.529 1254.52 308.113 1226.35 C 292.06 1259.06 286.105 1278.22 298.122 1314.57 C 308.779 1346.8 330.453 1367.15 364.133 1373.14 C 335.101 1337.95 325.58 1314.67 324.984 1268.33 C 335.807 1299.41 352.016 1316.49 381.392 1331.61 C 417.38 1350.15 451.459 1355.57 491.171 1349.39 C 455.791 1337.16 415.053 1314.7 410.331 1273.47 C 431.819 1296.89 455.551 1312.28 488.498 1308.14 L 490.284 1307.93 L 491.354 1307.79 C 478.901 1295.19 467.506 1285.76 468.385 1266.19 C 470.109 1227.82 514.27 1200.5 544.404 1184.71 C 580.652 1165.72 619.547 1150.44 657.636 1136.66 C 623.15 1131.7 575.28 1146.49 542.336 1157.37 C 531.339 1161 519.068 1164.39 508.599 1169.02 C 544.902 1141.86 578.997 1117.81 617.238 1093.32 C 678.486 1054.11 700.063 960.786 679.517 894.41 C 685.542 905.304 696.569 923.628 698.998 935.504 C 714.64 1011.95 678.244 1077.36 728.701 1149.1 C 726.042 1136.06 723.163 1122.89 721.39 1109.87 C 710.655 1031.04 743.717 963.153 785.38 899.03 C 792.279 888.411 818.867 849.645 809.673 836.085 C 804.988 839.176 804.673 843.164 800.368 844.528 C 793.605 839.105 783.128 825.79 777.712 818.574 C 769.665 807.85 766.248 794.024 754.94 787.155 L 755.928 786.043 C 776.124 797.599 776.822 805.592 791.163 819.838 C 791.397 776.396 774.853 746.587 731.152 735.092 C 797.653 725.418 841.629 793.803 830.877 853.123 C 824.918 885.996 804.157 906.918 786.232 933.829 C 763.789 969.298 743.355 1018.66 745.815 1060.86 C 754.131 1027.56 760.171 1006.08 780.523 977.625 C 804.199 943.54 848.278 926.127 860.22 883.875 C 868.687 853.917 870.08 819.064 852.183 792.418 C 805.278 722.587 732.026 727.423 753.829 622.444 C 776.501 678.494 820.824 711.617 874.997 735.269 C 887.527 740.739 916.651 750.79 930.015 753.583 C 873.121 719.208 824.496 687.122 806.971 617.472 C 789.419 547.713 826.166 498.722 751.862 453.79 C 744.749 449.45 737.421 445.473 729.906 441.873 C 742.175 444.009 755.303 449.633 767.061 453.981 C 843.536 482.26 908.351 532.489 968.549 586.312 C 988.753 604.376 1006.37 625.572 1026.07 643.244 C 1022.12 631.205 1010.01 611.951 1003.34 600.836 C 961.29 530.82 900.228 462.201 826.64 424.763 C 761.979 391.866 634.252 377.68 565.741 400.587 C 560.998 402.155 556.31 403.881 551.682 405.761 C 562.065 396.204 584.323 374.068 591.649 362.717 C 604.609 342.637 606.629 306.579 612.737 283.225 C 616.279 269.682 620.534 261.559 626.178 248.957 C 595.858 282.719 585.216 310.764 572.668 353.205 C 566.629 373.631 538.197 399.367 520.584 410.95 C 539.042 388.576 548.932 367.741 535.536 339.484 z M 1823.75 939.994 C 1861 942.79 1887.74 940.89 1921.01 923.389 C 1879.11 929.818 1835.02 912.04 1801.35 887.76 C 1708.97 821.149 1685.97 690.239 1573 646.277 C 1553.67 638.756 1530.77 633.3 1510.13 632.133 C 1604.41 615.07 1677.64 689.113 1750.73 733.442 C 1755.88 736.563 1774 744.807 1779.53 744.062 C 1778.32 740.381 1758.85 728.516 1754.25 724.828 C 1728.9 704.514 1707.84 679.856 1684.73 657.193 C 1650.83 624.376 1612.22 596.793 1570.19 575.351 C 1512.21 546.233 1453.02 532.927 1391.61 514.7 C 1319.67 493.351 1255.13 430.109 1175.97 434.39 L 1172.57 435.46 L 1172.8 436.649 C 1179.32 439.235 1186.03 440.178 1192.62 442.415 C 1209.12 448.008 1224.63 456.13 1239.34 465.409 C 1266.39 482.474 1287.88 506.546 1313.67 525.09 C 1335.08 540.484 1360.42 543.114 1385.62 546.868 C 1349.34 550.332 1320.76 552.363 1286.22 565.413 C 1237.16 583.949 1188.98 606.846 1135.23 603.059 C 1129.04 602.623 1114.76 600.986 1109.46 601.98 L 1109.22 603.235 C 1128.94 621.078 1170.95 624.683 1195.97 622.997 C 1220.03 621.376 1244.09 617.937 1267.97 614.587 C 1316.42 609.021 1365.42 610.123 1412.26 625.073 C 1428.45 630.243 1448.75 637.528 1461.59 648.993 C 1462.66 649.951 1463.71 650.926 1464.75 651.918 C 1416.1 631.951 1370.71 638.46 1323.03 658.224 C 1311.1 663.045 1299.68 669.059 1288.96 676.174 C 1376.86 674.334 1422.21 667.243 1505.53 707.196 C 1616.49 760.401 1644.03 878.325 1757.93 922.752 C 1777.04 930.206 1803.5 939.086 1823.75 939.994 z M 1708.69 1254.93 C 1724.75 1269.47 1764.59 1297.95 1789.49 1303.97 C 1789.81 1303.93 1790.12 1303.89 1790.44 1303.86 C 1789.57 1300.46 1781.91 1295.95 1778.68 1293.34 C 1715.26 1242.13 1699.23 1158.75 1678.35 1084.41 C 1654.38 999.032 1618.27 916.586 1551.73 855.631 C 1470.31 784.375 1358.75 740.793 1253.43 721.189 C 1126.6 698.122 978.485 707.412 886.832 599.702 C 871.466 581.683 855.557 557.833 847.684 535.429 C 845.709 529.809 841.25 509.149 839.193 505.621 C 824.467 660.814 954.007 744.515 1096.89 734.965 C 1058.08 746.453 1026.41 752.959 985.692 754.27 C 980.316 754.443 968.042 753.792 964.947 757.431 C 966.946 766.779 1000.53 773.346 1009.49 775.324 C 1057.75 785.975 1107.18 784.006 1156.23 785.306 C 1274.13 788.782 1369.65 811.07 1463.54 885.87 C 1502.85 917.694 1535.79 956.66 1560.62 1000.72 C 1612.22 1093.65 1623.11 1178.84 1708.69 1254.93 z M 964.356 862.819 C 1042.09 1121.82 1336.06 1093.62 1503.94 1255.72 C 1534.1 1284.84 1559.49 1329.46 1577.96 1366.91 C 1598.61 1410.5 1625.68 1493.99 1660.95 1526.68 C 1642.15 1468.88 1647.34 1416.24 1634.35 1361.02 C 1628.82 1338.47 1618.71 1304.27 1608.28 1283.53 C 1576.12 1219.53 1527.43 1174.18 1466.92 1137.44 C 1422.36 1110.38 1381.93 1094.48 1333.38 1076.8 C 1216.71 1034.32 1129.71 1005.26 1048.74 905.701 C 1066.39 913.418 1082.26 920.203 1101.1 925.121 C 1174.45 944.276 1257.31 939.267 1331.94 929.492 C 1310.8 927.204 1290.35 925.776 1268.51 922.918 C 1162.33 909.021 1050 875.835 972.685 797.839 C 965.899 790.994 960.135 777.408 952.522 771.562 C 951.049 780.987 953.084 791.732 954.674 801.055 C 961.989 843.943 993.641 894.926 1024.77 925.187 L 1024.47 926.166 C 1001.21 913.315 979.251 883.903 964.356 862.819 z M 1157.49 1811.44 C 1169.04 1808.42 1182.1 1799.04 1192.61 1792.77 C 1231.49 1769.58 1284.82 1730.29 1311.67 1692.41 C 1374.56 1612.26 1393.14 1547.38 1380.56 1445.04 C 1369.03 1351.25 1327.91 1277.91 1253.86 1218.9 C 1202.44 1177.92 1144.87 1161.98 1090.84 1126.17 C 1075.48 1115.99 1061.75 1103.85 1048.35 1091.29 C 1059.32 1131.92 1097.76 1164.28 1132.86 1184.6 C 1141.11 1189.38 1153.1 1194.59 1160.35 1199.88 C 1118.35 1182.83 1092.39 1175.12 1053.29 1148.9 C 1000.98 1113.8 957.17 1076.14 933.022 1015.5 C 920.374 984.709 914.172 954.884 912.96 921.477 C 912.772 916.291 914.073 892.46 913.311 889.67 C 889.265 945.564 881.565 991.739 904.267 1050.78 C 942.869 1151.16 1042.22 1192.16 1129.69 1239.75 C 1154.19 1253.13 1173.82 1263.18 1196.74 1278.84 C 1262.85 1323.99 1298.54 1396.86 1309.2 1474.88 C 1317.52 1535.68 1314.11 1592.93 1289.52 1650.17 C 1266.75 1703.15 1236.53 1736.3 1195.25 1775.79 C 1185.54 1785.08 1164.92 1802.38 1157.49 1811.44 z M 688.811 371.34 C 703.062 375.181 716.531 374.451 731.064 373.899 C 779.275 372.066 814.989 352.74 856.324 330.575 C 935.218 288.27 1015.6 266.765 1104.6 287.957 C 1121.27 291.928 1134.67 297.41 1150.73 303.231 C 1117.2 299.592 1081.61 297.628 1048.64 305.683 C 1025.95 311.226 1002.52 317.941 982.395 330.001 C 1001.95 333.984 1030.19 340.289 1048.83 346.922 C 1126.37 322.183 1215.41 337.628 1288.75 369.659 C 1308.03 378.468 1326.98 387.98 1345.56 398.177 C 1362.54 407.544 1379.5 417.528 1396.19 427.139 C 1479.13 474.887 1580.65 519.467 1676.43 482.855 C 1707.05 471.151 1727.83 459.487 1746.97 431.857 C 1720.36 446.919 1694.44 459.664 1663.28 459.672 C 1543.45 459.702 1436.91 368.838 1336.74 314.44 C 1242.53 263.279 1139.56 226.619 1031.96 232.416 C 972.138 236.105 912.567 250.232 862.048 283.553 C 834.868 301.48 812.438 319.143 782.945 334.873 C 763.408 345.078 743.077 353.683 722.15 360.603 C 712.491 363.812 697.548 367.817 688.811 371.34 z M 837.18 1851.01 C 845.785 1845.68 861.452 1827.47 872.1 1819.12 C 908.511 1790.56 944.121 1770.13 984.656 1748.08 C 1058.82 1706.12 1126.06 1654.4 1148.98 1568.02 C 1165.58 1505.42 1157.13 1432.4 1125.82 1375.94 C 1085.12 1302.53 1028.42 1267.02 961.337 1220.81 C 950.11 1213.08 938.635 1201.39 926.975 1193.13 C 950.734 1240.07 985.685 1278.13 1027.98 1309.38 C 956.425 1274.42 867.304 1206.74 841.142 1129 C 830.208 1096.51 829.571 1061.09 833.698 1026.97 C 834.399 1021.18 839.942 1002.24 839.441 997.851 C 808.897 1036.38 797.956 1076.23 803.474 1124.57 C 812.211 1201.13 863.863 1255.84 924.431 1297.28 C 997.235 1347.1 1075.75 1399.75 1087.06 1495.28 C 1098.04 1588.04 1037.73 1659.97 971.185 1715.69 C 956.364 1728.17 940.15 1739.01 925.069 1751.17 C 895.081 1776.98 854.852 1815.38 837.18 1851.01 z M 742.995 1437.28 C 743.103 1430.63 742.96 1422.96 743.411 1416.4 C 746.42 1372.54 729.706 1333.5 699.598 1302.31 C 692.471 1294.91 684.741 1288.11 676.489 1281.99 C 695.555 1314.73 707.509 1341.25 711.074 1379.69 C 720.323 1479.4 623.871 1537.84 589.399 1622.27 C 573.938 1655.19 564.174 1703.35 574.827 1739.01 C 577.123 1721.49 578.905 1703.2 584.701 1686.46 C 596.219 1653.01 619.812 1616.8 644.693 1591.65 C 703.893 1531.8 783.892 1489.3 802.598 1399.99 C 818.443 1324.35 790.404 1245.14 720.065 1208.47 C 701.258 1198.67 686.036 1192.97 664.945 1190.38 C 660.517 1189.87 656.082 1189.42 651.642 1189.03 C 652.525 1192.44 652.797 1193.64 656.384 1195.11 C 719.361 1220.98 748.508 1280.27 753.541 1345.81 C 756.007 1377.92 750.303 1404.78 742.995 1437.28 z M 1468.79 293.998 L 1471.5 292.492 C 1468.43 291.234 1462.28 291.861 1458.7 291.982 C 1435.99 292.746 1417.26 291.215 1395.16 286.046 C 1332.97 271.498 1226.63 215.459 1163.55 224.222 C 1169.79 229.492 1211.51 239.68 1222.54 243.569 C 1249.46 253.062 1274.46 264.338 1300.8 275.221 C 1307.14 277.839 1327.25 282.223 1335.03 284.077 C 1368.99 292.171 1408.06 301.187 1442.99 298.268 C 1451.69 297.523 1460.31 296.095 1468.79 293.998 z M 1454.08 1419.61 C 1480.19 1490.01 1476.38 1551.64 1458.29 1623.39 C 1453.98 1640.45 1446.48 1657.82 1442.19 1674.08 C 1450.8 1666.63 1456.69 1660.04 1463.72 1651.02 C 1500.91 1605.97 1518.76 1553.61 1512.55 1495.04 C 1507.55 1447.85 1498.65 1437.12 1454.08 1419.61 z M 364.978 1203.02 C 393.955 1189.9 344.276 1159.27 338.286 1141.1 C 336.878 1136.83 326.302 1100.08 327.723 1101.94 C 315.887 1120 314.694 1138.27 318.443 1159.38 C 320.777 1172.53 328.124 1184.02 330.528 1197.06 C 342.248 1203.8 351.493 1206.16 364.978 1203.02 z M 1119.02 539.289 C 1153.6 502.417 1151.16 434.707 1113.15 401.424 C 1079.45 371.924 1038.08 365.242 995.004 367.232 C 994.014 367.273 993.025 367.338 992.038 367.427 C 932.316 372.461 897.652 389.919 846.809 418.357 L 852.596 422.778 C 869.846 417.252 893.115 412.263 911.027 410.387 C 899.42 415.317 882.853 426.069 873.322 434.599 C 879.71 438.126 885.719 441.544 892.374 444.56 C 946.216 410.901 986.868 388.961 1054.16 398.277 C 1076.6 400.491 1097.27 411.453 1111.68 428.79 C 1138.76 461.635 1134.25 502.301 1119.02 539.289 z M 581.016 1228.06 C 608.983 1254.94 621.366 1274.45 622.817 1315.12 C 625.977 1403.74 527.839 1428.52 533.373 1514.37 C 535.831 1506.61 537.522 1501.02 540.917 1493.67 C 550.571 1475.43 564.124 1460.78 579.767 1446.72 C 624.626 1406.39 661.868 1349.74 643.956 1286.97 C 636.636 1261.31 608.439 1232.89 581.016 1228.06 z M 440.761 1131.4 C 468.352 1080.66 514.802 1029.54 495.831 971.784 C 493.779 965.536 492.785 963.657 488.574 958.743 C 483.59 972.8 479.177 986.567 471.479 999.505 C 458.848 1020.73 439.336 1041.76 431.782 1065.39 C 425.846 1083.96 431.857 1109.75 438.268 1127.42 C 438.667 1128.52 440 1130.51 440.761 1131.4 z M 1059.89 593.067 C 1073.43 578.424 1086.47 562.226 1096.7 545.165 C 1138.97 474.672 1100.67 400.164 1015.7 408.408 C 976.74 412.179 939.934 428.054 910.45 453.805 C 952.252 461.991 992.965 443.196 1035.02 447.458 C 1052.21 449.201 1073.8 452.93 1085.97 466.379 C 1078.13 471.834 1019.33 515.505 1017.66 519.398 C 1022.38 522.674 1038.2 520.925 1043.94 519.916 C 1052.71 518.293 1061.22 515.515 1069.26 511.653 C 1074.61 509.01 1079.68 506.504 1084.91 503.614 C 1074.28 513.792 1066.38 525.734 1056.58 536.804 C 1047.06 547.57 1034.82 557.183 1025.1 567.193 C 1035.4 575.116 1049.07 586.16 1059.89 593.067 z M 262.513 914.81 C 261.478 906.735 260.994 900.924 260.654 892.781 C 259.78 868.938 265.682 850.557 279.261 830.651 C 256.376 824.61 243.167 821.642 221.062 812.102 C 220.954 850.726 239.969 884.199 262.513 914.81 z M 672.03 1928.96 C 671.985 1919.38 671.767 1909.28 671.983 1899.75 C 673.632 1829.84 697.221 1778.64 748.207 1730.46 C 803.841 1678.95 868.942 1638.57 902.553 1567.66 C 917.816 1535.46 922.797 1511.46 924.954 1475.66 C 928.525 1416.41 910.287 1324.24 856.758 1289.78 C 889.482 1359.49 898.745 1430.27 872.202 1503.77 C 847.038 1573.45 791.318 1626.38 740.707 1678.31 C 684.315 1736.17 634.095 1848.46 671.196 1927.23 L 672.03 1928.96 z M 175.285 901.463 C 173.997 890.754 172.02 876.207 171.846 865.686 C 171.762 857.627 175.506 827.032 173.489 824.283 C 166.953 833.835 164.909 855.19 163.91 866.652 C 162.211 863.612 159.859 858.896 158.534 856.267 C 156.476 852.185 153.206 833.842 150.062 832.823 C 137.906 828.883 135.891 809.245 132.221 805.118 L 131.7 805.221 L 129.875 806.696 L 124.382 805.672 C 115.157 822.842 161.722 886.873 175.285 901.463 z M 655.515 235.975 C 643.31 245.52 638.652 258.304 636.562 273.242 C 635.768 278.915 634.773 307.548 635.91 311.587 L 636.957 311.788 C 650.851 291.868 642.606 279.876 647.688 257.66 C 648.848 252.593 656.301 239.983 655.952 236.226 L 655.515 235.975 z M 129.186 775.681 C 128.834 778.825 127.813 786.622 130.763 788.448 C 146.216 798.015 170.079 799.418 187.334 805.443 C 192.441 807.227 209.229 813.753 211.003 813.704 L 212.284 809.833 C 206.065 800.503 156.707 778.779 143.867 777.902 C 140.707 777.686 132.918 776.16 129.186 775.681 z M 126.825 700.278 C 104.738 688.176 115.684 665.374 110.353 648.671 C 105.185 671.152 107.018 699.538 105.146 722.855 C 103.847 739.026 101.356 764.842 109.572 779.104 L 111.899 780.647 C 113.265 778.511 113.148 778.284 113.737 775.768 C 121.447 748.127 126.292 729.331 126.825 700.278 z M 261.945 1111.73 C 257.864 1128.52 267.364 1158.05 276.204 1172.88 C 291.768 1171.49 292.853 1172.97 307.499 1176.76 C 308.216 1171.29 305.189 1163.08 303.408 1157.57 C 287.315 1147.82 279.713 1143.09 269.983 1126.01 C 268.454 1123.33 263.385 1113.84 261.945 1111.73 z M 395.613 958.876 C 385.837 980.382 376.043 988.915 364.07 1007.94 C 359.05 1015.92 357.863 1050.6 356.524 1061.47 C 355.164 1072.52 348.575 1096.37 349.419 1105.54 L 350.544 1107.22 C 353.299 1087.1 362.486 1076.66 367.312 1060.02 C 376.07 1029.83 400.05 990.353 396.398 959.867 L 395.613 958.876 z M 1132.43 120.244 C 1094.77 195.32 1009.25 191.737 937.117 190.316 C 867.432 188.942 786.159 208.442 729.183 249.54 C 684.637 283.084 646.329 335.218 604.226 372.223 C 603.748 372.644 603.537 373.862 603.393 374.499 C 604.633 376.124 603.914 375.697 605.24 376.198 C 639.956 366.061 672.212 347.881 700.845 325.788 C 735.612 298.96 760.937 273.673 802.45 255.809 C 841.039 238.779 882.368 228.922 924.298 225.15 C 994.458 218.839 1083.23 232.057 1125.72 161.177 C 1130.85 152.607 1139.38 131.135 1135.4 121.409 C 1134.2 120.871 1133.7 120.554 1132.43 120.244 z" fill="rgb(30,31,49)" transform="translate(0,0)"></path>
<path d="M 511.828 492.462 C 537.766 490.105 555.777 505.686 580.469 512.698 C 595.511 516.97 603.449 518.09 619.156 518.836 C 594.81 531.351 581.403 523.855 559.85 531.164 C 536.35 539.133 516.669 557.215 490.027 563.682 C 458.944 571.226 452.611 554.359 428.119 551.632 C 406.841 549.263 378.482 549.876 357.09 550.901 C 376.386 545.123 390.665 542.389 410.59 541.435 L 413.876 541.304 L 413.945 540.004 C 410.876 536.283 408.896 535.878 404.892 533.465 C 365.648 509.82 308.914 527.877 266.78 541.683 C 304.177 515.807 339.453 504.164 386.11 512.695 C 399.234 515.771 414.111 523.188 428.017 519.923 C 457.569 512.985 480.663 496.148 511.828 492.462 z M 489.068 514.267 C 488.302 522.464 488.41 531.043 487.236 539.015 C 486.591 543.402 477.149 553.18 477.139 555.812 C 485.559 557.937 499.534 550.876 507.071 546.909 C 522.263 538.451 535.785 529.111 547.973 516.691 C 536.023 510.497 524.169 508.378 510.715 509.35 C 502.268 510.733 497.34 511.931 489.068 514.267 z" fill="rgb(30,31,49)" transform="translate(0,0)"></path>
<path d="M 684.645 459.032 C 707.941 461.518 741.751 476.725 757.715 494.554 C 782.386 522.108 783.607 545.726 782.617 580.285 C 779.86 577.751 776.188 561.124 774.63 556.431 C 756.11 500.654 734.006 484.047 684.645 459.032 z" fill="url(#Gradient2)" transform="translate(0,0)"></path>
<path d="M 500.365 433.405 C 517.941 432.613 536.359 435.03 552.826 441.355 C 516.974 434.832 462.297 444.801 434.055 469.416 C 422.806 482.373 421.368 487.42 416.74 503.827 C 403.808 466.579 445.277 442.772 475.343 436.611 C 483.911 434.856 491.701 434.107 500.365 433.405 z" fill="rgb(30,31,49)" transform="translate(0,0)"></path>
<path d="M 563.126 542.623 C 564.042 542.94 563.462 542.664 564.612 543.853 C 560.687 555.69 549.299 562.719 539.174 568.656 C 510.979 585.193 477.069 591.123 446.249 578.472 L 436.738 574.833 C 481.771 579.996 529.641 576.763 563.126 542.623 z" fill="rgb(30,31,49)" transform="translate(0,0)"></path>
<path d="M 650.919 932.557 C 655.818 940.983 655.239 982.254 653.882 992.836 C 652.792 1001.03 650.961 1009.11 648.411 1016.97 C 635.884 1055.83 598.572 1094.03 562.979 1112.45 L 562.508 1112.11 C 563.41 1109.33 571.168 1105.31 574.102 1103.28 C 616.791 1073.83 650.091 1022.82 653.084 970.319 C 653.744 958.746 651.515 944.208 650.919 932.557 z" fill="rgb(2,1,4)" fill-opacity="0.921569" transform="translate(0,0)"></path>
<path d="M 707.116 882.178 C 709.762 881.453 712.013 881.556 714.748 881.484 C 728.027 907.401 727.05 921.23 729.241 950.334 C 725.892 939.913 724.233 929.885 721.304 919.411 C 717.676 906.438 712.536 894.45 707.116 882.178 z" fill="url(#Gradient1)" transform="translate(0,0)"></path>
<path d="M 682.329 835.052 C 694.619 848.156 707.127 865.147 714.748 881.484 C 712.013 881.556 709.762 881.453 707.116 882.178 C 698.674 864.963 691.672 853.517 680.695 838.286 L 682.329 835.052 z" fill="rgb(2,1,4)" fill-opacity="0.941176" transform="translate(0,0)"></path>
<path d="M 576.188 478.077 C 589.72 480.839 605.796 491.025 614.188 502.241 C 604.239 496.808 582.755 485.8 576.188 478.077 z" fill="rgb(2,1,4)" transform="translate(0,0)"></path>
<path d="M 680.695 838.286 C 678.182 834.891 673.248 829.53 672.518 826.017 L 673.415 828.699 L 672.479 826.379 L 675.37 827.737 L 674.979 827.308 L 682.329 835.052 L 680.695 838.286 z" fill="rgb(2,1,4)" fill-opacity="0.831373" transform="translate(0,0)"></path>
<path d="M 418.348 567.581 C 445.278 588.994 457.609 600.8 471.414 634.517 C 544.832 620.552 670.272 617.595 738.317 650.023 C 657.744 636.095 557.553 627.905 477.014 646.247 C 482.917 664.323 490.018 684.415 491.388 703.493 C 567.256 706.061 641.747 724.476 710.072 757.556 C 723.457 764.145 745.275 776.006 755.928 786.043 L 754.94 787.155 C 685.515 748.333 570.258 719.071 490.309 716.294 L 490.003 717.629 C 483.511 744.918 448.504 743 450.959 758.632 C 459.879 764.033 474.855 767.283 485.075 770.644 C 545.523 790.528 605.773 821.916 648.572 869.98 C 646.222 871.737 645.448 872.578 642.763 873.753 C 603.487 836.133 550.008 807.754 499.244 789.757 C 484.548 784.547 469.91 778.155 454.632 774.816 C 464.3 805.644 475.556 807.544 489.027 833.366 C 468.707 812.941 453.951 800.472 446.114 772.384 C 436.823 770.099 427.113 767.423 417.649 766.35 C 402.219 781.62 385.839 789.133 365.433 796.708 C 383.736 784.638 392.529 780.598 405.701 763.265 C 388.959 758.889 344.222 754.428 326.553 752.907 C 324.214 751.055 321.705 749.72 319.13 748.184 C 351.223 743.704 382.142 747.347 413.764 752.496 C 421.407 737.335 424.324 729.261 425.183 712.116 C 384.433 710.745 343.161 711.987 302.983 719.115 C 299.095 719.805 287.986 722.595 285.254 722.335 C 290.002 719.033 300.582 715.907 306.328 714.152 C 344.352 702.737 383.993 697.652 423.666 699.1 C 419.283 683.017 404.854 671.44 391.532 661.997 C 359.827 666.44 328.832 674.974 299.321 687.386 C 281.321 694.884 262.907 703.996 244.715 710.598 C 282.087 680.995 332.901 660.628 379.399 651.209 C 356.611 631.29 319.415 623.41 289.569 624.736 C 254.106 626.311 231.15 645.795 201.351 656.564 C 276.805 602.961 326.26 601.54 407.439 645.928 C 425.615 642.79 446.127 639.692 463.933 635.602 C 449.023 597.412 438.257 595.469 418.348 567.581 z M 419.712 656.219 C 434.824 668.987 440.037 678.309 443.631 697.706 L 444.132 699.848 C 448.653 701.006 475.672 702.454 482.249 702.941 C 481.141 692.749 474.503 653.587 468.548 647.555 L 468.133 647.469 C 452.538 649.696 434.991 652.458 419.712 656.219 z M 425.989 754.292 C 431.716 755.866 436.992 757.268 442.794 758.598 C 443.692 754.724 444.253 751.69 445.789 748.008 C 460.918 730.159 473.866 742.01 482.006 715.171 C 471.9 713.503 463.445 712.464 453.146 712.49 C 449.235 712.68 447.154 712.109 444.273 713.875 C 439.59 728.256 435.177 741.927 425.989 754.292 z" fill="rgb(30,31,49)" transform="translate(0,0)"></path>
<path d="M 642.763 873.753 C 645.448 872.578 646.222 871.737 648.572 869.98 C 658.832 881.738 664.174 890.898 672.211 904.078 L 671.43 905.551 L 673.204 906.726 L 672.873 905.331 L 672.547 906.475 C 661.941 895.518 654.424 884.134 642.763 873.753 z" fill="rgb(2,1,4)" fill-opacity="0.984314" transform="translate(0,0)"></path>
<path d="M 326.553 752.907 C 321.138 752.785 298.816 753.048 295.685 751.847 L 319.13 748.184 C 321.705 749.72 324.214 751.055 326.553 752.907 z" fill="rgb(2,1,4)" fill-opacity="0.984314" transform="translate(0,0)"></path>
<metadata><recraft-signature>{"signed_by": "recraft", "signature_b64": "mG/z+4zje2DRmcb7hZ59IUxLs154lUR1OktyRM5X+fzNHqqQ6K3hZ2ICYhIjFBu4KuJllkUqkHfzTARCUBZJCw==", "signing_algo": "Ed25519"}</recraft-signature></metadata></svg>