<?xml version="1.0" encoding="utf-8" ?><svg xmlns="http://www.w3.org/2000/svg" xmlns:xlink="http://www.w3.org/1999/xlink" width="1024" height="1024" viewBox="0 0 1024 1024"><path fill="white" d="M451.119 33.9107C451.582 36.1678 449.046 42.9606 448.136 45.4331C445.785 51.8237 441.864 57.0134 437.783 62.3556C452.179 57.8382 469.523 50.2536 484.573 48.5165C495.735 47.3251 506.974 47.0196 518.184 47.6028C537.919 48.5787 558.632 51.1219 578.226 48.1203C587.261 46.7361 598.247 42.6803 606.901 39.5955C595.084 52.5295 587.084 61.6589 573.791 72.7805C599.236 69.1194 622.366 70.6026 646.868 78.9597C687.683 92.8807 728.518 121.916 773.582 115.269C769.753 118.139 766.209 119.599 762.129 121.804C747.311 129.813 739.401 132.606 723.294 135.277C732.211 140.384 742.968 143.878 751.64 149.432C785.878 171.359 809.572 205.57 843.807 227.836C866.964 242.897 886.417 252.546 914.508 251.956C908.426 254.87 900.472 260.281 894.095 263.625C878.034 272.047 866.129 274.748 848.65 277.674C851.767 281.987 855.594 284.865 859.411 288.542C863.974 292.894 868.145 297.64 871.876 302.724C904.5 346.592 924.447 391.253 983.08 404.071C977.93 406.739 971.966 409.989 966.588 411.977C943.98 420.336 921.414 420.44 897.907 418.893C899.57 425.229 903.629 431.955 906.42 438.067C922.025 472.238 939.889 508.395 969.95 532.186C976.839 537.637 987.06 541.265 995.19 544.13C988.427 547.557 982.577 550.377 975.569 553.016C958.692 559.372 916.182 559.162 900.573 551.332C904.222 556.914 913.291 569.637 917.494 574.601C928.23 587.279 946.817 598.562 961.829 605.799C964.447 607.061 979.142 611.261 982.325 611.99C986.478 612.932 990.694 613.569 994.94 613.896C997.025 614.058 1004.9 613.983 1005.81 614.313C1003.06 618.041 984.949 628.439 979.758 631.125C962.054 640.286 939.198 643.276 919.365 642.943C911.845 642.817 898.072 639.214 890.951 636.866C892.809 643.807 899.423 656.847 903.152 663.124C915.976 684.709 930.192 700.479 955.044 706.899C949.315 709.725 943.191 711.45 937.001 712.953C903.829 721.011 868.851 714.676 839.842 696.998C840.35 707.587 850.33 730.348 856.322 739.426C866.175 754.355 880.728 770.363 896.087 779.503C901.608 782.789 908.39 784.476 914.296 786.99C908.433 787.906 902.079 789.916 896.117 790.665C875.452 793.262 857.268 794.399 836.55 791.219C824.504 789.37 813.27 786.421 801.571 782.858C798.907 782.126 784.582 776.17 782.939 777.132C777.599 780.258 788.321 810.664 789.728 814.091C797.225 832.358 804.115 840.034 821.585 847.658C809.455 846.927 791.175 845.26 779.582 841.981C755.721 835.234 731.032 820.784 714.113 802.728C711.15 817.571 715.769 839.117 720.7 853.315C726.472 869.937 739.144 886.698 753.436 897.12C757.731 900.252 764.394 903.281 769.279 905.655L768.881 906.131C762.761 907.072 748.527 905.249 741.716 904.611C699.775 900.677 660.11 870.326 643.428 832.006C642.449 829.757 642.081 824.9 641.081 823.601C640.689 823.87 640.096 824.356 639.988 824.835C628.808 874.34 640.547 930.041 675.93 967.526C685.214 977.361 692.292 982.773 704.427 988.256C671.957 988.949 626.632 978.748 598.334 963.355C571.122 948.553 540.967 917.084 531.798 887.046C529.887 880.785 528.926 879.477 529.263 873.077L528.471 873.41C524.341 879.023 521.444 901.369 521.674 908.777C522.191 925.439 528.795 946.824 537.343 961.307C540.823 967.591 547.229 975.155 552.483 979.971C518.651 967.057 487.93 933.553 468.608 903.678C459.279 889.253 447.351 861.037 445.771 843.852C441.411 851.314 438.706 861.985 437.888 870.546C434.671 904.227 439.546 938.25 465.782 961.815C442.876 954.1 406.463 924.079 392.667 904.03C366.725 866.332 363.172 836.153 370.292 792.784C349.117 834.453 344.568 868.701 373.869 907.999C370.328 906.223 367.156 903.88 363.813 901.723C320.736 873.934 289.198 824.761 287.499 772.885C287.242 765.059 286.556 753.876 288.672 746.3C281.76 751.209 276.318 760.778 273.281 768.548C262.38 796.443 264.661 816.314 276.209 842.964C274.115 840.73 272.305 838.858 269.853 836.971C221.317 799.6 197.002 754.618 237.891 698.877L236.181 699.255C219.731 702.75 202.208 715.502 192.567 729.366C194.437 698.56 212.621 667.43 238.026 650.208C257.413 637.066 281.005 628.542 281.764 600.911C281.812 599.161 281.691 598.218 280.438 596.9C275.25 598.467 262.732 605.717 257.139 608.597C237.489 618.715 209.819 627.465 200.038 649.01C195.807 658.329 198.046 666.963 201.893 675.867C193.31 673.383 181.779 669.319 175.965 662.166C177.212 671.006 178.735 673.886 182.654 681.808C155.081 678.134 123.657 646.947 116.752 620.788C113.702 609.236 112.039 583.701 117.943 573.106C115.951 570.305 114.18 567.652 112.25 564.816C99.2797 545.756 97.4933 517.431 102.408 495.147C105.933 507.503 113.657 532.684 126.373 537.543C124.962 521.088 125.151 504.826 131.366 489.281C134.309 503.168 136.727 513.471 144.051 526.249C153.76 524.724 157.356 523.104 165.365 517.981C182.053 507.306 180.019 487.799 188.474 471.728C192.989 463.145 199.643 456.612 207.349 450.577C200.954 429.774 187.333 402.745 172.064 387.148C156.942 371.702 140.326 366.711 119.288 366.33C119.017 366.889 118.758 367.454 118.51 368.024C107.386 393.473 107.264 415.228 117.489 440.897C100.674 428.579 88.5941 407.154 81.666 387.51C79.9554 382.659 79.4536 374.301 77.3884 367.807L76.8716 367.771C75.28 370.823 75.3438 375.409 74.7392 378.754C71.1374 398.681 76.9236 416.35 82.3297 435.777C78.75 431.847 75.3268 427.777 72.068 423.576C56.9814 403.731 45.5967 372.429 48.9967 347.598C28.9074 335.843 25.4975 315.181 30.0041 293.331C31.3934 286.596 35.4765 279.954 35.2394 273.124C34.9159 263.806 28.2921 255.955 26.5122 247.02C24.9687 235.799 33.954 235.961 40.3577 232.42C43.1105 229.869 45.8554 225.106 48.0711 222.185C57.3154 209.997 72.5152 210.199 84.2612 204.52C95.3949 199.137 103.242 189.822 116.896 186.667C128.773 183.922 139.531 182.21 151.747 181.479C170.558 179.515 185.887 174.896 200.638 162.657C206.258 157.994 212.27 152.859 219.075 150.022C225.983 147.142 233.952 145.293 241.303 143.832C244.355 143.225 251.849 142.818 254.219 141.793C259.673 139.435 266.591 134.19 271.971 131.468C284.884 124.935 298.939 119.485 311.103 111.608C327.985 100.676 337.624 82.6404 356.682 73.6652C363.524 70.4429 373.73 65.9446 381.012 64.0415C409.797 56.5177 431.532 58.6383 451.119 33.9107ZM108.974 234.466L109.286 234.262C117.419 229.022 122.068 222.304 131.501 218.009C142.269 213.105 158.714 216.577 169.285 220.649C167.138 220.366 164.981 220.178 162.818 220.085C155.938 219.741 144.957 219.53 138.736 222.596C125.71 228.296 117.333 241.661 104.749 248.104C84.19 258.631 57.1369 266.568 53.8209 294.222C54.1344 298.733 55.9493 313.04 59.3401 315.883C86.1433 338.361 123.092 340.604 155.048 340.534C150.256 337.869 121.756 327.77 121.205 327.078C125.418 324.925 148.197 331.257 153.041 332.631C193.196 344.019 224.976 370.427 243.247 408.254C250.137 422.52 265.418 471.522 259.017 487.068C243.799 523.008 219.4 564.881 185.568 585.83C170.735 595.015 137.17 588.986 121.373 583.277C120.021 583.814 120.546 583.385 119.754 584.62C119.842 585.026 119.93 585.601 120.213 585.896C133.569 598.814 173.538 598.555 188.05 590.614C208.973 579.164 225.592 555.453 239.457 536.604C253.026 518.157 265.125 496.258 272.575 474.408C272.546 474.279 272.518 474.151 272.489 474.022L272.357 473.376C270.189 463.154 270.835 453.881 268.058 442.964C256.757 398.521 233.945 372.023 196.545 347.288C187.272 341.155 179.549 335.526 169.441 329.492C162.175 325.222 154.823 321.101 147.389 317.131C141.564 313.971 133.464 310.046 128.713 305.82L128.161 305.324C150 309.409 172.487 322.692 190.902 334.542C198.147 327.574 198.396 320.391 198.978 311.011C189.809 308.319 181.448 303.927 171.492 301.265C164.05 299.347 156.568 297.583 149.053 295.974C143.52 294.808 136.664 293.661 131.498 291.8L134.07 291.52C152.429 289.352 180.999 297.965 198.397 303.183C196.236 291.116 197.977 292.461 190.803 280.256C178.655 276.296 154.27 279.082 142.169 282.353C136.481 283.891 130.651 285.968 124.742 287.336C135.388 277.88 155.652 274.774 169.328 273.122C174.33 272.518 178.691 271.492 183.668 272.487C172.269 262.657 163.994 257.03 148.767 255.331C133.406 253.772 118.076 258.561 106.333 268.587C102.396 271.981 99.059 276.513 95.0008 279.633C99.3585 270.666 105.259 264.506 113.452 258.763C133.251 244.886 160.984 246.984 181.016 259.247C185.903 262.239 192.135 270.599 198.039 272.33C221.282 273.629 244.259 275.942 267.141 280.536C306.47 288.432 345.926 301.146 375.693 329.309C383.719 336.256 388.731 345.295 394.998 353.463C402.17 362.81 403.975 377.539 410.17 386.228C411.25 372.544 405.871 352.671 399.601 340.585C381.29 305.287 357.754 283.293 320.144 270.783C341.855 265.636 372.252 271.763 391.683 282.909C393.051 283.694 392.238 283.549 393.839 283.846C392.597 276.362 382.153 269.243 376.595 264.405C375.3 263.278 372.123 262.762 371.085 261.595C372.287 261.346 371.704 261.524 372.835 261.061C373.483 257.33 373.101 250.505 373.102 246.576C373.105 221.651 365.626 196.856 342.824 183.834C340.634 182.583 339.145 183.262 337.818 181.122L337.922 180.973C343.899 179.306 363.257 185.668 368.998 188.608C377.899 193.168 386.745 201.285 393.23 208.818C385.968 192.028 379.621 184.51 364.925 174.156C346.88 161.442 331.641 156.744 309.75 155.859C320.008 152.531 327.855 150.595 338.612 149.003C338.74 147.022 339.393 145.484 339.509 142.64C312.489 141.648 288.465 146.315 262.098 151.564C252.947 153.386 242.142 154.183 233.287 156.535C229.443 157.574 225.719 159.011 222.174 160.824C205.863 169.093 196.054 182.506 176.476 187.399C160.949 192.629 142.75 191.389 127.145 195.302C113.025 198.843 98.0364 210.342 84.4724 216.061C72.7107 221.021 62.1675 221.521 54.4463 232.343C52.0912 235.001 50.6661 237.77 49.2308 240.998C48.0823 245.11 47.4038 247.698 46.6968 251.925C46.3547 256.522 46.6263 260.733 47.9379 265.204C48.4771 261.017 48.3071 257.649 48.2038 253.464C48.8137 248.73 49.6534 245.741 51.308 241.328C52.5136 238.714 54.514 236.415 56.1796 233.975C65.6039 225.19 79.7165 224.393 91.7609 226.357C98.8051 227.505 103.259 230.456 108.974 234.466ZM207.509 315.232C205.173 326.875 203.681 328.483 196.268 337.523C218.644 350.27 240.635 366.283 255.708 387.435C257.741 390.287 259.285 393.472 261.1 396.464C263.706 400.758 266.909 404.834 268.816 409.505C275.92 426.899 286.864 465.6 279.386 483.068C266.34 513.543 221.16 584.869 190.217 597.169C176.243 602.724 161.188 601.747 146.542 600.886C142.59 600.654 138.47 600.864 134.573 600.141C129.934 599.28 125.653 597.5 121.336 595.652C122.228 603.299 123.868 611.03 128.716 617.273C130.548 613.566 135.628 602.213 140.178 602.231C141.445 604.755 138.018 613.338 138.127 617.811C138.587 636.628 145.57 644.759 157.051 657.182C155.999 649.043 155.129 641.791 159.043 634.191C160.751 630.875 164.39 623.178 167.692 622.009L168.179 622.412C168.871 626.462 167.557 629.061 167.661 632.891C167.816 638.571 171.311 644.991 175.6 648.683C177.901 650.664 182.228 655.281 185.298 655.227C179.719 642.65 195.3 624.101 204.855 617.565C222.224 605.683 241.769 597.912 259.885 586.977C272.54 579.338 290.167 563.768 303.735 559.724C283.058 556.63 271.135 561.322 253.4 571.621C268.864 548.162 286.734 528.706 316.896 531.392C320.086 531.676 322.147 531.067 325.308 532.343L325.108 531.625C321.658 529.22 320.57 527.804 317.516 525.287C311.137 520.028 301.692 517.541 293.761 515.604C300.827 507.431 305.282 500.446 310.919 491.305C329.029 499.018 353.443 519.763 355.659 540.935C356.73 551.166 353.467 565.668 349.935 575.242C358.402 565.128 358.741 561.557 361.741 548.942C365.434 556.348 370.938 572.758 374.152 581.209C374.332 580.701 374.511 580.193 374.69 579.684C376.371 574.818 380.04 570.599 382.227 565.994C386.044 557.958 389.053 549.502 391.281 540.892C394.237 550.574 396.083 558.334 397.485 568.455C399.393 578.159 400.316 584.533 399.336 594.652C399.981 598.57 398.646 600.556 398.207 603.968C395.15 627.827 377.709 651.41 363.042 670.273C324.649 719.652 300.064 765.39 328.262 828.088C327.762 825.895 327.297 823.694 326.866 821.486C324.546 809.684 324.471 803.734 324.413 791.868C324.096 765.945 331.137 740.463 344.719 718.38C348.736 711.876 354.627 704.024 359.067 697.639C369.602 682.486 380.572 667.696 390.822 652.359C404.469 631.938 412.275 614.607 412.096 589.54C412.029 580.079 411.531 574.309 410.04 564.888C408.579 555.652 395.288 518.629 388.446 514.078L387.831 514.304L388.799 515.978C387.203 521.497 388.187 526.427 387.27 531.564C384.898 544.845 381.463 554.603 376.047 566.788C364.823 537.959 353.935 513.659 328.978 493.867C324.083 489.984 319.543 485.529 314.167 482.079C306.679 477.272 298.386 474.296 290.824 469.665L290.075 469.202C295.977 468.843 300.763 466.716 306.547 465.393C323.433 461.531 331.787 468.518 346.007 474.722L346.606 474.979C346.549 473.314 346.434 471.997 346.183 470.277C342.875 447.673 337.605 418.406 319.067 403.073C317.872 402.084 317.993 402.368 316.717 401.021L316.859 400.387C317.708 400.44 318.446 400.626 319.214 400.69C339.091 402.348 352.029 405.537 367.942 419.294C367.249 417.583 366.544 415.877 365.826 414.176C354.693 387.789 331.401 359.54 307.437 343.959C303.426 341.351 298.911 337.96 294.524 336.172C304.697 335.57 335.082 335.74 344.638 338.979C330.349 325.632 315.098 317.823 297.481 309.666C268.196 296.107 233.809 281.455 201.078 279.929C205.158 287.628 207.497 295.017 207.696 303.722C207.42 306.76 212.479 307.418 215.464 308.743C234.425 317.157 252.584 328.722 267.653 343.299C287.743 362.733 304.899 390.638 309.485 418.51C310.34 423.709 313.19 447.437 310.376 451.236L309.525 451.234C308.721 449.351 308.522 438.576 307.872 435.093C306.123 425.717 303.91 417.167 300.571 408.161C285.63 367.867 245.9 332.866 207.509 315.232ZM448.862 458.438C437.515 447.801 423.47 435.914 409.022 429.712C410.975 434.118 413.832 440.692 414.938 445.298C417.971 457.93 419.644 485.744 416.526 498.125C407.639 490.891 403.741 487.835 392.51 485.566C401.104 491.569 416.384 502.708 421.726 511.591C427.91 492.835 428.418 468.752 423.803 449.554C431.317 454.02 439.171 463.223 445.452 469.784C484.476 510.171 521.449 577.998 486.657 631.994C466.727 662.926 428.507 689.65 399.09 711.951C361.71 740.289 324.594 776.888 337.884 829.032C337.457 735.354 453.413 708.667 496.974 638.658C507.166 622.466 512.542 603.709 512.473 584.576C512.34 552.317 499.436 519.927 480.401 494.049C474.46 485.972 466.266 478.225 459.54 470.375C458.422 432.694 459.513 428.477 442.676 393.364C454.955 398.441 467.396 403.008 479.712 407.962C489.362 411.843 498.889 416.166 508.605 419.856C543.375 433.064 588.528 449.638 618.624 471.204C641.287 487.442 663.199 513.65 673.848 539.456C690.53 579.88 689.624 624.549 672.753 664.829C663.706 686.429 651.008 705.606 636.129 723.591C632.705 727.728 629.094 732.587 624.923 735.955L623.798 735.322C640.344 706.064 650.49 682.098 645.259 647.25C636.843 591.192 597.75 548.232 553.809 515.662C533.386 500.524 510.859 486.677 490.666 471.496C485.094 466.624 481.412 462.82 476.637 457.143C473.648 453.589 469.776 448.221 466.395 445.398C472.696 456.511 480.237 464.43 489.141 473.337C499.064 483.277 509.567 492.621 520.595 501.318C573.878 543.694 633.305 591.964 634.066 666.203C634.362 695.079 624.138 717.609 607.068 740.112C574.766 785.541 509.348 812.058 505.263 874.341C512.241 860.496 515.148 851.383 524.846 838.514C539.608 818.925 556.857 803.896 575.849 788.669C615.242 757.085 657.793 727.923 679.419 680.523C685.083 668.109 687.398 659.775 691.371 646.989C702.023 612.713 699.37 577.404 688.634 543.598C673.463 495.825 632.361 461.24 588.441 440.2C578.845 435.603 566.754 430.761 556.67 426.635C512.787 408.675 467.739 394.118 423.525 376.682C428.792 383.715 430.279 388.373 434.179 395.849C445.113 416.807 449.698 434.64 448.862 458.438ZM897.874 402.062C898.926 402.521 912.222 399.763 914.319 399.347C915.439 399.319 917.929 399.111 918.811 398.491C915.839 397.593 912.875 398.074 909.829 398.402C907.441 398.708 896.444 399.287 895.433 399.68C893.853 399.689 894.234 399.602 892.959 399.278C884.86 397.221 876.343 397.387 868.084 396.271C853.655 394.321 838.117 391.464 824.059 387.87C802.878 382.456 782.449 372.436 761.923 364.889C742.385 357.705 723.31 349.945 703.874 342.295C663.812 326.527 622.003 311.938 588.217 284.325C584.013 280.889 577.411 274.898 574.489 270.395L574.848 269.807C577.158 266.065 579.919 262.703 582.481 259.139C605.128 227.63 615.365 185.972 593.103 151.301C705.893 169.739 706.015 279.349 788.566 335.957C791.896 338.241 799.9 344.004 803.537 344.896L803.701 344.611C800.571 341.841 796.028 339.732 792.446 336.827C726.186 283.092 715.144 181.352 627.916 149.741C607.372 142.296 587.527 136.966 565.352 137.532C579.417 147.005 591.103 161.587 594.348 178.486C599.533 205.484 588.633 232.793 573.68 254.738C571.132 258.478 563.373 266.474 564.337 271.019C566.812 282.699 599.531 306.131 610.035 312.344C652.199 337.282 695.577 351.417 740.635 369.301C761.399 377.542 781.555 387.726 803.138 393.726C827.439 400.691 852.602 404.184 877.881 404.103C881.7 404.068 892.011 403.565 895.884 402.627C896.555 402.467 897.219 402.279 897.874 402.062ZM891.768 681C888.069 676.225 881.333 671.821 877.021 666.771C839.413 622.721 824.628 565.7 790.292 519.801C741.63 459.12 667.639 431.018 596.207 406.989C552.797 392.386 507.31 380.196 471.274 350.615C432.831 319.057 430.448 269.444 402.048 231.81C400.665 229.977 397.246 224.775 395.67 223.796C401.017 234.832 407.378 245.819 411.259 257.507C420.039 284.233 426.381 310.251 443.031 333.554C468.794 369.611 513.618 391.202 554.511 405.518C619.499 428.271 690.217 447.878 744.739 492.014C761.563 505.52 776.322 521.414 788.547 539.192C798.255 553.415 805.269 567.801 813.578 582.913C830.433 613.57 849.736 648.295 876.717 671.225C879.921 673.948 887.933 679.831 891.768 681ZM931.083 611.973C927.368 609.979 923.717 609.224 920.017 607.523C913.067 604.326 905.023 600.429 898.801 596.06C885.229 586.53 873.185 574.993 863.081 561.843C857.598 554.783 852.962 548.77 848.411 541.015C833.638 515.844 825.183 488.486 811.231 462.706C796.013 434.283 774.963 409.395 749.457 389.674C727.963 373.064 693.596 359.299 667.768 351.641C653.144 347.305 635.214 344.194 620.158 340.648C611.842 338.689 602.789 337.888 594.672 335.848C556.899 326.354 521.909 314.545 488.717 293.64C465.86 279.245 454.539 265.565 438.388 244.356C435.723 240.857 425.813 227.944 423.479 226.016C424.333 229.311 429.372 236.889 431.383 240.433C449.781 272.841 472.08 294.665 504.23 313.457C522.95 324.283 542.872 332.881 563.591 339.075C631.763 359.61 706.319 360.694 760.066 415.205C793.231 448.842 806.645 478.262 824.872 520.45C839.359 553.981 867.313 588.187 901.047 602.41C907.097 605.097 925.096 612.03 931.083 611.973ZM477.364 788.156L476.45 788.472C475.902 798.4 475.263 818.69 479.062 827.765L479.774 827.882C482.844 846.002 491.405 880.941 501.019 896.573C499.089 882.201 495.348 868.116 493.287 854.037C489.594 828.82 487.265 801.653 490.756 776.338C494.455 749.519 508.967 735.513 524.829 715.797C545.188 690.489 564.557 660.456 563.621 626.771C563.042 605.947 553.701 577.148 538.521 562.783C548.737 578.857 554.269 597.46 554.498 616.504C554.936 652.377 536.296 682.77 514.46 709.641C492.485 736.682 480.133 751.867 477.364 788.156ZM157.026 540.512C160.402 542.28 162.172 542.353 165.892 541.599C187.667 537.183 206.608 524.248 216.728 504.217C223.519 490.774 231.636 478.236 241.948 467.14C241.933 461.554 239.947 450.962 237.794 445.895L237.408 445.63C213.828 451.13 194.22 471.921 189.321 495.091C184.133 519.635 171.624 525.627 149.24 533.45C151.802 535.84 154.398 538.195 157.026 540.512ZM832.349 742.213C830.339 736.959 826.207 731.947 823.784 726.866C815.563 709.62 810.295 691.647 805.875 673.276C798.617 643.101 790.056 612.301 766.299 590.633C751.456 576.185 741.076 568.915 721.915 560.351C713.459 556.572 705.823 553.58 696.609 551.789C697.848 555.636 698.782 560.249 700.153 563.736C707.325 566.956 715.1 569.057 722.454 573.227C755.114 591.749 773.141 611.723 787.092 648.706C795.601 671.265 810.82 723.456 831.856 742.053C832.02 742.106 832.185 742.159 832.349 742.213ZM836.985 766.971C838.937 767.054 840.503 767.388 842.19 766.699C839.078 765.911 837.468 765.954 834.38 764.787C825.376 761.382 817.096 758.077 808.508 753.643C775.748 736.731 745.096 715.297 722.472 685.771C715.901 677.219 710.719 667.293 705.231 658.079C703.476 655.131 699.857 648.143 698.027 645.755C696.163 651.29 694.521 657.13 692.855 662.745C696.78 668.73 700.3 675.389 704.213 681.265C709.872 689.76 717.853 700.491 725.037 708.083C751.868 736.438 791.107 756.286 828.628 765.933C830.624 766.446 834.902 766.791 836.985 766.971ZM525.286 123.992C521.685 123.209 517.437 122.528 514.58 120.147C512.002 114.66 542.966 103.93 547.922 102.528C559.965 99.1214 571.278 98.1555 583.662 97.2079C606.315 95.7399 639.87 102.212 661.771 108.131C671.411 110.737 681.9 114.752 691.322 116.925C689.198 114.789 685.84 113.178 683.096 111.796C660.82 100.583 636.961 91.8735 612.107 88.8161C605.873 88.0492 600.281 87.0511 593.995 87.027C591.631 87.0403 589.268 87.0981 586.907 87.2003C552.568 90.0354 524.1 96.5074 497.307 120.13L497.142 120.754C506.778 121.958 515.805 124.13 525.286 123.992ZM375.597 153.478C394.174 161.142 408.817 169.635 421.284 186.105C422.917 190.508 429.424 197.471 429.916 202.184C430.011 203.095 429.807 202.618 430.701 203.409L431.005 203.133C431.081 198.044 425.324 186.644 422.743 181.918C411.643 163.01 392.308 149.301 370.534 145.772C368.774 145.206 367.178 145.035 365.356 144.759C362.861 146.095 361.038 147.706 358.833 149.471C364.359 150.413 370.68 151.029 375.597 153.478ZM527.424 229.864C528.305 232.045 529.823 233.927 530.422 235.418L529.899 236.942C527.913 237.82 526.448 238.138 526.165 240.765C525.478 247.146 521.442 248.557 518.877 253.034L519.186 253.731C528.077 255.818 547.568 236.232 551.304 228.338C556.747 216.839 563.087 206.062 559.088 192.734C557.796 185.826 549.09 174.639 541.223 175.77C528.663 177.576 512.012 184.03 499.585 187.781C506.138 191.028 513.682 194.985 519.811 198.902L521.505 200.265C522.777 201.62 524.659 203.497 525.679 204.967C523.365 205.245 520.883 204.961 518.215 205.214C515.896 204.305 514.247 203.421 511.78 203.44L511.442 203.911C512.862 205.526 514.424 205.999 516.405 206.895C521.292 210.52 526.274 212.468 530.511 215.341C528.714 216.336 528.039 216.639 526.113 217.365C523.613 217.724 517.045 217.789 516.234 218.773C520.217 223.037 522.533 223.995 527.424 229.864ZM549.958 248.475C551.906 248.905 551.983 249.036 553.61 250.283C557.004 246.446 560.558 242.136 563.309 237.817C565.656 234.629 566.67 232.841 568.571 229.331C584.282 205.652 584.85 168.085 554.771 155.475C532.988 146.342 506.921 157.791 486.458 166.043C485.359 166.373 483.386 166.894 482.476 167.334L482.541 168.015C480.483 168.865 480.201 168.901 477.97 169.236L477.25 170.04C477.737 171.651 477.728 171.255 479.137 172.59C482.167 172.821 485.608 172.752 488.532 171.877L489.3 171.787C511.073 169.137 535.697 153.014 556.812 169.296C563.984 174.827 568.178 182.643 569.137 191.608C570.715 206.365 567.749 214.554 563.143 227.836C560.175 233.205 555.753 239.5 553.185 244.317C551.753 245.772 551.128 246.78 549.958 248.475ZM509.18 69.5642C513.268 69.0999 517.044 68.4847 521.203 68.0751C524.893 67.3435 526.535 68.0537 530.224 66.5373C528.309 65.557 528.777 66.264 528.236 64.7267L518.415 65.5464C513.427 65.3913 509.603 65.8709 505.113 65.8097C501.806 65.8603 496.568 66.4074 493.32 67.0955C481.972 68.3309 473.121 69.5834 462.06 73.213C457.851 74.3984 449.536 77.4689 445.901 79.7964C435.175 85.2583 425.551 95.0616 418.733 104.85C437.166 91.6228 438.631 88.2199 461.807 79.8692C462.461 79.7682 464.157 79.065 464.868 78.7964C473.497 75.9373 487.142 74.5069 493.723 72.0134C498.589 71.8824 504.446 70.6607 509.18 69.5642ZM708.756 735.365C715.634 739.693 718.996 741.85 724.482 748.056C739.611 765.169 748.686 802.049 768.869 814.724C766.139 809.507 761.22 804.926 758.945 799.586C750.072 778.767 743.535 756.584 723.736 743.096C719.359 740.114 713.99 736.626 708.756 735.365ZM399.566 79.0625L398.947 77.6101C395.47 77.985 388.075 78.3491 385.121 78.9024C363.608 80.1557 344.995 99.3178 334.515 116.863C338.958 113.247 342.022 108.588 346.137 104.922C357.907 94.4378 372.822 86.1874 387.984 81.8583C389.872 81.6328 397.313 79.6174 399.566 79.0625ZM480.164 225.125C482.604 227.103 484.276 228.191 487.256 229.327L488.473 227.932L484.184 224.493C481.633 222.526 478.55 219.354 476.173 217.03C474.926 215.83 473.607 214.315 472.421 213.026C463.186 199.842 456.838 185.494 450.798 170.622C448.678 170.796 448.349 170.697 446.635 171.803L446.149 172.875C448.843 186.842 461.006 208.942 471.896 217.83C473.055 218.944 474.055 219.885 475.278 220.928C477.14 222.955 477.912 223.496 480.164 225.125ZM717.769 165.842C728.268 172.114 737.43 178.524 745.996 187.37C752.06 193.631 757.228 200.525 762.892 207.128C777.771 223.899 797.108 239.025 819.377 243.926C819.509 243.971 819.641 244.015 819.774 244.059C822.815 244.752 824.223 245.283 827.291 244.848C826.118 243.853 825.09 243.905 823.415 243.555L821.981 242.457C819.812 242.44 815.278 239.897 813.041 238.816C803.103 234.075 793.908 227.911 785.748 220.517C764.178 201.036 747.531 175.15 718.977 163.622L713.423 161.471C709.974 160.004 701.814 157.465 698.252 157.978C701.28 159.123 706.454 161.086 709.569 161.814L717.769 165.842ZM114.914 349.744C106.6 348.267 96.7503 346.898 88.8526 343.926C83.0086 364.293 86.9842 389.375 97.2045 407.771C99.2648 411.479 101.528 415.139 103.562 418.889C102.854 414.297 102.825 411.734 102.398 407.381C100.636 388.25 109.13 367.631 114.914 349.744ZM51.4143 322.475C46.9393 311.062 44.0973 301.942 44.6889 289.525C44.7306 288.649 43.6282 288.182 43.0005 287.832C37.452 297.317 36.4334 311.346 39.384 321.884C39.9753 323.996 40.6904 326.685 42.7363 327.796L44.4488 327.115L51.4143 322.475ZM625.013 943.336C606.589 932.295 593.552 912.409 588.405 891.676C583.115 870.365 585.613 847.128 590.038 825.814C590.733 822.466 594.887 806.434 595.002 804.771C587.718 818.55 581.183 830.26 578.279 845.938C570.843 886.091 585.1 924.937 623.121 943.525C624.552 944.643 633.043 949.001 634.62 948.826C631.696 946.765 628.369 944.606 625.013 943.336ZM808.022 287.557C811.534 289.839 814.852 291.132 818.495 293.024C835.003 303.042 841.69 319.065 852.515 334.097C865.387 351.972 882.109 370.32 903.861 376.611C891.606 367.586 881.086 361.304 871 349.022C853.799 328.077 845.728 303.668 819.368 292.09C814.813 289.523 813.22 288.92 808.022 287.557ZM480.927 139.573L480.992 142.564C485.47 143.58 488.863 143.769 493.398 143.766C489.815 142.252 484.662 140.74 480.927 139.573ZM217.893 446.146C219.323 441.033 219.102 437.017 217.939 431.954C211.019 401.82 198.562 378.277 171.632 361.597C167.305 358.724 166.122 357.965 161.353 356.146C158.613 354.408 152.601 352.594 149.42 352.128L149.055 352.822C153.435 354.578 158.356 356.428 162.599 358.399C165.789 359.972 168.071 361.283 171.127 363.122C192.801 379.694 206.134 400.697 213.398 426.979C215.15 433.316 216.127 439.776 217.893 446.146ZM244.739 674.532C254.081 669.26 261.772 667.19 271.743 663.717C286.429 658.614 299.458 652.121 311.439 642.01C319.599 635.124 323.495 630.469 326.839 620.208C331.039 607.319 327.216 585.747 312.144 581.714C312.744 585.069 314.065 587.849 314.73 590.993C317.306 603.176 318.639 616.329 310.983 627.041C300.677 642.27 281.365 650.177 265.631 658.777C259.72 662.05 253.986 665.631 248.452 669.507C244.409 672.341 240.003 675.432 236.747 679.141C239.396 677.608 242.073 676.027 244.739 674.532ZM244.152 785.831L245.228 786.861L245.701 786.512C241.447 765.926 246.543 740.502 257.82 722.626C261.944 716.088 267.823 710.52 273.601 705.486C275.637 703.678 284.808 697.459 285.392 696.469L285.011 695.719L283.772 695.472C247.259 707.785 232.791 743.01 241.379 779.668C241.742 781.218 243.377 784.386 244.152 785.831ZM71.9783 361.133C67.1039 359.184 62.1704 357.359 57.5314 354.922L56.7875 354.537L56.3442 354.3C54.4344 370.287 57.1329 384.696 63.9158 399.253C64.7198 400.978 66.7453 405.782 68.2106 406.771L68.4086 406.033C67.472 391.914 67.3306 374.503 71.9783 361.133ZM53.0566 336.438C59.9772 339.422 68.9228 345.587 76.1173 347.359L78.8203 348.317C80.4359 347.317 81.861 342.203 81.093 340.311C76.8835 338.782 62.528 332.66 59.8353 332.331C57.4333 333.704 55.371 334.888 53.0566 336.438ZM83.4478 230.543C80.8527 231.092 79.5677 230.67 76.4681 231.524C80.6895 231.922 88.3801 233.043 90.8876 236.555C92.8187 239.26 91.5215 240.412 91.7397 242.964C93.4691 242.142 98.439 240.21 99.4016 239.043C100.414 232.973 87.9454 231.687 84.3155 230.759L83.4478 230.543ZM412.899 890.16L413.831 889.675C414.151 886.198 412.148 878.465 412.108 874.727C411.935 861.583 413.927 849.456 418.094 836.998C428.298 806.489 466.051 785.762 458.567 750.259C457.952 747.346 456.69 740.24 454.097 738.726C453.798 764.791 451.858 772.38 434.104 792.675C417.112 812.098 403.914 834.362 405.826 860.899C406.142 869.378 408.368 882.864 412.899 890.16ZM123.397 565.406L126.894 561.634C128.516 559.922 130.39 557.833 132.124 556.294C130.875 552.944 129.364 548.755 127.825 545.552C113.034 544.723 112.787 533.083 105.624 524.343C106.55 538.096 113.36 555.96 123.397 565.406ZM679.152 736.329C657.637 784.91 662.079 809.612 694.505 851.176L697.813 854.41C674.396 818.376 667.073 789.985 676.565 747.468C677.118 744.993 679.677 738.09 679.152 736.329ZM833.966 419.022C863.468 434.574 870.871 453.724 885.72 481.505C895.457 499.72 917.282 526.213 938.205 531.409C936.552 528.968 927.857 525.624 925.016 523.29C920.905 519.919 916.997 515.992 913.733 511.795C891.886 483.708 882.869 445.729 850.79 426.198C846.531 423.604 838.934 419.859 833.966 419.022ZM615.826 227.354C619.662 236.102 623.537 241.674 631.155 247.628C658.653 269.121 698.114 267.661 723.811 292.32C728.528 296.847 733.378 301.087 737.053 306.62C737.469 307.244 737.874 307.658 738.401 308.172L739.157 308.107C739.061 307.975 738.965 307.844 738.869 307.712C734.805 300.805 733.302 296.548 727.92 290.127C714.243 273.813 695.786 265.534 675.669 260.228C672.862 259.487 671.832 258.269 669.231 257.708C669.271 257.711 667.444 257.569 667.534 257.588C654.781 254.833 642.297 249.982 631.216 243.106C624.274 238.798 620.904 231.354 615.826 227.354ZM132.001 516.679C131.253 519.951 131.55 522.856 131.655 526.47C132.247 546.832 139.52 571.509 162.299 576.313C164.749 576.83 166.246 576.028 167.906 574.209C169.916 570.727 171.476 567.295 170.503 563.148C170.091 561.428 169.238 559.844 168.03 558.553C162.188 552.198 150.872 547.163 145.058 539.666C139.874 532.982 135.157 525.794 132.955 517.589L132.001 516.679Z"/><path fill="white" d="M282.982 163.248C283.928 163.009 289.68 163.073 290.512 163.236C316.606 167.981 358.611 206.11 337.491 234.69C317.558 261.665 273.687 272.907 243.079 259.205C239.158 257.171 235.497 253.509 231.871 251.207C209.124 236.765 172.668 234.309 146.911 238.446C153.351 235.726 157.958 235.505 164.683 234.557C187.046 231.469 211.397 233.712 232.183 242.848C242.307 247.297 249.036 255.071 261.3 256.047C271.459 256.856 279.914 255.558 289.798 252.935C307.815 248.152 332.853 238.603 335.863 217.379C337.232 207.176 329.9 197.274 323.761 189.75C316.757 182.194 304.138 169.957 293.318 168.287C289.555 167.706 280.728 169.571 276.556 170.005C252.849 172.473 252.53 169.452 233.679 183.587C244.412 181.198 259.265 181.651 269.47 186.154C279.288 190.486 287.452 199.673 298.246 201.954C304.248 203.223 311.514 202.251 317.618 201.685C301.022 210.709 296.92 206.768 281.458 205.225C275.089 204.59 255.871 215.239 245.166 214.486C233.551 213.669 225.171 211.747 213.762 209.529C208.232 208.897 202.192 212.942 195.241 212.168C188.77 211.447 181.523 209.835 175.204 208.391C151.736 203.029 142.353 205.161 120.845 212.584C141.275 200.756 151.88 199.243 176.558 200.328C184.869 200.693 190.707 202.301 199.04 199.819C218.828 193.924 227.037 169.891 248.464 165.41C256.927 163.64 273.62 163.718 282.982 163.248ZM258.072 202.913C265.195 200.655 266.919 193.758 259.658 190.905C254.78 193.79 249.474 200.566 258.072 202.913Z"/><path fill="white" d="M277.401 212.614L279.047 212.507L279.255 212.954C271.057 218.92 254.551 225.66 244.268 225.605C237.599 225.569 226.533 222.76 220.757 219.407C217.683 217.506 216.895 216.649 214.325 214.14C238.931 225.594 253.847 218.495 277.401 212.614Z"/><defs><linearGradient id="gradient_0" gradientUnits="userSpaceOnUse" x1="553.25897" y1="196.40881" x2="524.52356" y2="217.39198"><stop offset="0" stop-color="#F7F7F6" stop-opacity="0.56862748"/><stop offset="1" stop-color="#F4F3F3" stop-opacity="0.7019608"/></linearGradient></defs><path fill="url(#gradient_0)" d="M521.505 200.265C523.601 199.419 525.288 199.353 526.803 197.713C526.751 195.108 525.08 195.453 526.687 194.159C530.392 191.177 534.115 191.441 538.487 192.061C539.007 192.135 539.941 190.811 540.255 190.317C540.417 190.315 543.39 190.4 543.206 190.427C557.641 188.331 555.548 196.119 555.262 208.961C552.682 212.791 550.503 217.107 548.082 221.14C545.476 225.48 540.144 230.608 540.205 235.491C536.034 237.69 535.185 234.183 530.7 234.963L530.422 235.418C529.823 233.927 528.305 232.045 527.424 229.864C527.617 225.155 529.853 222.253 526.001 218.46L526.113 217.365C528.039 216.639 528.714 216.336 530.511 215.341C530.843 214.696 530.817 214.261 530.939 213.49C529.21 210.94 528.21 212.42 526.188 209.922C526.902 208.359 527.727 207.092 527.566 205.442L526.695 204.803L525.679 204.967C524.659 203.497 522.777 201.62 521.505 200.265Z"/><defs><linearGradient id="gradient_1" gradientUnits="userSpaceOnUse" x1="745.48407" y1="770.23511" x2="731.51593" y2="777.26489"><stop offset="0" stop-color="#FFFCFF" stop-opacity="0"/><stop offset="1" stop-color="#FAFBFA" stop-opacity="0.031372551"/></linearGradient></defs><path fill="url(#gradient_1)" d="M708.756 735.365C713.99 736.626 719.359 740.114 723.736 743.096C743.535 756.584 750.072 778.767 758.945 799.586C761.22 804.926 766.139 809.507 768.869 814.724C748.686 802.049 739.611 765.169 724.482 748.056C718.996 741.85 715.634 739.693 708.756 735.365Z"/><path fill="#FCFBFC" fill-opacity="0.38431373" d="M520.056 187.891C524.095 183.995 536.401 181.446 541.69 180.928C544.783 180.625 549.268 186.808 556.131 189.04C557.317 190.596 555.804 200.709 556.191 203.744C556.469 205.922 556.598 208.873 556.925 211.212C549.377 221.711 553.139 224.647 540.205 235.491C540.144 230.608 545.476 225.48 548.082 221.14C550.503 217.107 552.682 212.791 555.262 208.961C555.548 196.119 557.641 188.331 543.206 190.427C543.39 190.4 540.417 190.315 540.255 190.317C539.941 190.811 539.007 192.135 538.487 192.061C534.115 191.441 530.392 191.177 526.687 194.159C525.08 195.453 526.751 195.108 526.803 197.713C525.288 199.353 523.601 199.419 521.505 200.265L519.811 198.902C520.634 196.962 519.92 190.6 520.056 187.891Z"/><path fill="#FCFBFC" d="M480.992 142.564C473.81 140.66 466.692 138.909 459.659 136.495C437.34 128.834 409.554 124.381 386.02 128.636L385.684 128.276C406.165 121.202 429.167 121.74 449.98 127.606C459.917 130.407 471.019 135.736 480.927 139.573L480.992 142.564Z"/><defs><linearGradient id="gradient_2" gradientUnits="userSpaceOnUse" x1="357.25717" y1="89.029533" x2="363.19589" y2="102.07287"><stop offset="0" stop-color="white" stop-opacity="0"/><stop offset="1" stop-color="#F2EFF1" stop-opacity="0.047058824"/></linearGradient></defs><path fill="url(#gradient_2)" d="M334.515 116.863C344.995 99.3178 363.608 80.1557 385.121 78.9024C386.244 80.0973 386.513 80.4029 387.852 81.4359L387.984 81.8583C372.822 86.1874 357.907 94.4378 346.137 104.922C342.022 108.588 338.958 113.247 334.515 116.863Z"/><path fill="#FCFBFC" fill-opacity="0.98431373" d="M445.901 79.7964C445.219 81.408 444.81 81.9982 443.733 83.3887L443.73 84.2729C448.725 85.8288 457.465 75.8994 461.807 79.8692C438.631 88.2199 437.166 91.6228 418.733 104.85C425.551 95.0616 435.175 85.2583 445.901 79.7964ZM434.791 90.5849C436.496 89.446 439.705 87.58 440.731 86.0102L440.395 85.4301L439.564 85.2308C437.617 86.6176 434.602 88.5573 433.859 90.7658L434.791 90.5849Z"/><path fill="#FCFBFC" fill-opacity="0.83529413" d="M439.564 85.2308L440.395 85.4301L440.731 86.0102C439.705 87.58 436.496 89.446 434.791 90.5849L433.859 90.7658C434.602 88.5573 437.617 86.6176 439.564 85.2308Z"/><path fill="#FCFBFC" d="M339.509 142.64C346.333 142.372 358.545 143.236 365.356 144.759C362.861 146.095 361.038 147.706 358.833 149.471C352.12 148.655 345.359 148.868 338.612 149.003C338.74 147.022 339.393 145.484 339.509 142.64Z"/><path fill="#FCFBFC" fill-opacity="0.58431375" d="M445.901 79.7964C449.536 77.4689 457.851 74.3984 462.06 73.213C462.689 75.8094 462.754 76.3285 464.279 78.4869L464.868 78.7964C464.157 79.065 462.461 79.7682 461.807 79.8692C457.465 75.8994 448.725 85.8288 443.73 84.2729L443.733 83.3887C444.81 81.9982 445.219 81.408 445.901 79.7964Z"/><path fill="#FCFBFC" fill-opacity="0.13333334" d="M365.356 144.759C367.178 145.035 368.774 145.206 370.534 145.772C372.237 146.931 372.777 147.137 374.759 147.745C375.937 149.042 375.847 149.052 375.742 151.217C375.7 151.971 375.652 152.725 375.597 153.478C370.68 151.029 364.359 150.413 358.833 149.471C361.038 147.706 362.861 146.095 365.356 144.759Z"/><path fill="#FCFBFC" d="M446.149 172.875C444.599 168.736 439.919 151.699 439.357 147.425C443.401 155.796 446.978 161.522 450.798 170.622C448.678 170.796 448.349 170.697 446.635 171.803L446.149 172.875Z"/><path fill="#FCFBFC" d="M549.958 248.475C551.906 248.905 551.983 249.036 553.61 250.283C548.825 255.351 536.527 267.086 530.732 270.12C538.578 261.955 542.834 257.51 549.958 248.475Z"/><path fill="#FCFBFC" fill-opacity="0.98823529" d="M493.32 67.0955C496.568 66.4074 501.806 65.8603 505.113 65.8097C506.026 67.126 506.971 67.4013 508.418 68.1079L509.18 69.5642C504.446 70.6607 498.589 71.8824 493.723 72.0134C494.147 71.0085 494.613 70.0491 495.146 69.0973C494.55 68.4189 493.941 67.7515 493.32 67.0955Z"/><path fill="#FCFBFC" fill-opacity="0.89803922" d="M525.679 204.967L526.695 204.803L527.566 205.442C527.727 207.092 526.902 208.359 526.188 209.922C528.21 212.42 529.21 210.94 530.939 213.49C530.817 214.261 530.843 214.696 530.511 215.341C526.274 212.468 521.292 210.52 516.405 206.895C517.706 206.172 517.241 206.482 518.215 205.214C520.883 204.961 523.365 205.245 525.679 204.967Z"/><defs><linearGradient id="gradient_3" gradientUnits="userSpaceOnUse" x1="555.80548" y1="237.21677" x2="557.40698" y2="248.82291"><stop offset="0" stop-color="#FDFBFB" stop-opacity="0.92941177"/><stop offset="1" stop-color="#F6F4F5"/></linearGradient></defs><path fill="url(#gradient_3)" d="M553.185 244.317C557.237 243.197 557.324 235.455 562.414 236.46L563.309 237.817C560.558 242.136 557.004 246.446 553.61 250.283C551.983 249.036 551.906 248.905 549.958 248.475C551.128 246.78 551.753 245.772 553.185 244.317Z"/><path fill="#FCFBFC" fill-opacity="0.96862745" d="M563.143 227.836C565.323 228.188 566.534 228.328 568.571 229.331C566.67 232.841 565.656 234.629 563.309 237.817L562.414 236.46C557.324 235.455 557.237 243.197 553.185 244.317C555.753 239.5 560.175 233.205 563.143 227.836Z"/><path fill="#FCFBFC" fill-opacity="0.023529412" d="M489.141 473.337C480.237 464.43 472.696 456.511 466.395 445.398C469.776 448.221 473.648 453.589 476.637 457.143C481.412 462.82 485.094 466.624 490.666 471.496L489.141 473.337Z"/><path d="M479.774 827.882L479.062 827.765C475.263 818.69 475.902 798.4 476.45 788.472L477.364 788.156L477.39 788.577C477.638 793.463 477.004 800.138 477.093 805.734C477.206 812.862 479.622 822.255 479.774 827.882Z"/><path fill="#FCFBFC" fill-opacity="0.96470588" d="M482.476 167.334C483.386 166.894 485.359 166.373 486.458 166.043C487.134 168.676 487.342 169.454 488.532 171.877C485.608 172.752 482.167 172.821 479.137 172.59C477.728 171.255 477.737 171.651 477.25 170.04L477.97 169.236C480.201 168.901 480.483 168.865 482.541 168.015L482.476 167.334Z"/><path fill="#FCFBFC" fill-opacity="0.98039216" d="M422.743 181.918C425.324 186.644 431.081 198.044 431.005 203.133L430.701 203.409C429.807 202.618 430.011 203.095 429.916 202.184C429.424 197.471 422.917 190.508 421.284 186.105L422.073 185.671C422.266 184.214 422.424 183.354 422.743 181.918Z"/><path fill="#FCFBFC" fill-opacity="0.031372551" d="M505.113 65.8097C509.603 65.8709 513.427 65.3913 518.415 65.5464C519.727 66.016 520.812 66.3743 522.068 67.0046L522.017 67.5413L521.203 68.0751C517.044 68.4847 513.268 69.0999 509.18 69.5642L508.418 68.1079C506.971 67.4013 506.026 67.126 505.113 65.8097Z"/><path fill="#FCFBFC" fill-opacity="0.14117648" d="M895.433 399.68C896.444 399.287 907.441 398.708 909.829 398.402L913.998 398.69L914.319 399.347C912.222 399.763 898.926 402.521 897.874 402.062C897.224 401.194 896.259 400.427 895.433 399.68Z"/><path fill="#FCFBFC" d="M465.759 168.585C472.469 168.582 475.915 168.706 482.476 167.334L482.541 168.015C480.483 168.865 480.201 168.901 477.97 169.236L477.25 170.04C477.737 171.651 477.728 171.255 479.137 172.59C473.218 171.97 470.842 171.442 465.759 168.585Z"/><path fill="#FCFBFC" fill-opacity="0.31764707" d="M385.121 78.9024C388.075 78.3491 395.47 77.985 398.947 77.6101L399.566 79.0625C397.313 79.6174 389.872 81.6328 387.984 81.8583L387.852 81.4359C386.513 80.4029 386.244 80.0973 385.121 78.9024Z"/><path fill="#FCFBFC" fill-opacity="0.22352941" d="M476.173 217.03C478.55 219.354 481.633 222.526 484.184 224.493C482.838 224.62 481.322 224.609 480.164 225.125C477.912 223.496 477.14 222.955 475.278 220.928C475.227 218.123 474.757 218.734 476.173 217.03Z"/><path fill="#FCFBFC" d="M528.236 64.7267C535.447 63.8958 542.865 62.8879 550.1 62.6586C549.003 63.4059 532.095 66.5397 530.224 66.5373C528.309 65.557 528.777 66.264 528.236 64.7267Z"/><path fill="#FCFBFC" fill-opacity="0.98431373" d="M49.2308 240.998C50.6661 237.77 52.0912 235.001 54.4463 232.343C55.2247 233.244 55.3478 233.732 56.1796 233.975C54.514 236.415 52.5136 238.714 51.308 241.328L49.2308 240.998Z"/><path fill="#FCFBFC" fill-opacity="0.28627452" d="M518.415 65.5464L528.236 64.7267C528.777 66.264 528.309 65.557 530.224 66.5373C526.535 68.0537 524.893 67.3435 521.203 68.0751L522.017 67.5413L522.068 67.0046C520.812 66.3743 519.727 66.016 518.415 65.5464Z"/><path fill="#FCFBFC" fill-opacity="0.65098041" d="M49.2308 240.998L51.308 241.328C49.6534 245.741 48.8137 248.73 48.2038 253.464L46.6968 251.925C47.4038 247.698 48.0823 245.11 49.2308 240.998Z"/><path fill="#FCFBFC" fill-opacity="0.72156864" d="M709.569 161.814C706.454 161.086 701.28 159.123 698.252 157.978C701.814 157.465 709.974 160.004 713.423 161.471C711.937 161.358 710.758 161.044 709.569 161.814Z"/><path fill="#FCFBFC" fill-opacity="0.23529412" d="M480.927 139.573C484.662 140.74 489.815 142.252 493.398 143.766C488.863 143.769 485.47 143.58 480.992 142.564L480.927 139.573Z"/><path fill="#FCFBFC" fill-opacity="0.20392157" d="M162.599 358.399C158.356 356.428 153.435 354.578 149.055 352.822L149.42 352.128C152.601 352.594 158.613 354.408 161.353 356.146L162.599 358.399Z"/><path fill="#FCFBFC" fill-opacity="0.10196079" d="M161.353 356.146C166.122 357.965 167.305 358.724 171.632 361.597L171.127 363.122C168.071 361.283 165.789 359.972 162.599 358.399L161.353 356.146Z"/><path fill="#FCFBFC" fill-opacity="0.0078431377" d="M484.184 224.493L488.473 227.932L487.256 229.327C484.276 228.191 482.604 227.103 480.164 225.125C481.322 224.609 482.838 224.62 484.184 224.493Z"/><path fill="#FCFBFC" fill-opacity="0.14901961" d="M709.569 161.814C710.758 161.044 711.937 161.358 713.423 161.471L718.977 163.622L717.769 165.842L709.569 161.814Z"/><path fill="#FCFBFC" fill-opacity="0.062745102" d="M472.421 213.026C473.607 214.315 474.926 215.83 476.173 217.03C474.757 218.734 475.227 218.123 475.278 220.928C474.055 219.885 473.055 218.944 471.896 217.83C472.12 217.36 472.325 213.915 472.421 213.026Z"/><path fill="#FCFBFC" fill-opacity="0.65098041" d="M625.013 943.336C628.369 944.606 631.696 946.765 634.62 948.826C633.043 949.001 624.552 944.643 623.121 943.525L625.013 943.336Z"/><path fill="#FCFBFC" fill-opacity="0.25882354" d="M46.6968 251.925L48.2038 253.464C48.3071 257.649 48.4771 261.017 47.9379 265.204C46.6263 260.733 46.3547 256.522 46.6968 251.925Z"/><path fill="#FCFBFC" d="M398.947 77.6101C402.019 77.5878 406.164 75.7172 409.414 74.9303L409.349 75.3688C405.977 77.6966 403.6 78.3085 399.566 79.0625L398.947 77.6101Z"/><path fill="#FCFBFC" d="M488.473 227.932C489.568 228.636 497.259 233.367 497.699 233.932C495.744 233.331 488.968 230.466 487.256 229.327L488.473 227.932Z"/><path fill="#FCFBFC" fill-opacity="0.031372551" d="M516.405 206.895C514.424 205.999 512.862 205.526 511.442 203.911L511.78 203.44C514.247 203.421 515.896 204.305 518.215 205.214C517.241 206.482 517.706 206.172 516.405 206.895Z"/><path fill="#FCFBFC" fill-opacity="0.14509805" d="M818.495 293.024C814.852 291.132 811.534 289.839 808.022 287.557C813.22 288.92 814.813 289.523 819.368 292.09L818.495 293.024Z"/><path fill="#FCFBFC" fill-opacity="0.039215688" d="M823.415 243.555C825.09 243.905 826.118 243.853 827.291 244.848C824.223 245.283 822.815 244.752 819.774 244.059L823.415 243.555Z"/><path fill="#FCFBFC" fill-opacity="0.26274511" d="M909.829 398.402C912.875 398.074 915.839 397.593 918.811 398.491C917.929 399.111 915.439 399.319 914.319 399.347L913.998 398.69L909.829 398.402Z"/><path d="M623.798 735.322L624.923 735.955L619.642 741.715C621.204 738.464 621.546 738.062 623.798 735.322Z"/></svg>