<svg xmlns="http://www.w3.org/2000/svg" height="1024" preserveAspectRatio="none" style="display: block;" version="1.1" viewBox="0 0 2048 2048" width="1024">
<defs>
	<linearGradient gradientUnits="userSpaceOnUse" id="Gradient1" x1="1111.61" x2="1114.81" y1="474.434" y2="497.646">
		<stop class="stop0" offset="0" stop-color="rgb(253,251,251)" stop-opacity="0.929412"></stop>
		<stop class="stop1" offset="1" stop-color="rgb(246,244,245)" stop-opacity="1"></stop>
	</linearGradient>
	<linearGradient gradientUnits="userSpaceOnUse" id="Gradient2" x1="714.514" x2="726.392" y1="178.059" y2="204.146">
		<stop class="stop0" offset="0" stop-color="rgb(255,255,255)" stop-opacity="0"></stop>
		<stop class="stop1" offset="1" stop-color="rgb(242,239,241)" stop-opacity="0.0470588"></stop>
	</linearGradient>
	<linearGradient gradientUnits="userSpaceOnUse" id="Gradient3" x1="1490.97" x2="1463.03" y1="1540.47" y2="1554.53">
		<stop class="stop0" offset="0" stop-color="rgb(255,252,255)" stop-opacity="0"></stop>
		<stop class="stop1" offset="1" stop-color="rgb(250,251,250)" stop-opacity="0.0313725"></stop>
	</linearGradient>
	<linearGradient gradientUnits="userSpaceOnUse" id="Gradient4" x1="1106.52" x2="1049.05" y1="392.818" y2="434.784">
		<stop class="stop0" offset="0" stop-color="rgb(247,247,246)" stop-opacity="0.568627"></stop>
		<stop class="stop1" offset="1" stop-color="rgb(244,243,243)" stop-opacity="0.701961"></stop>
	</linearGradient>
</defs>
<path d="M 902.237 67.8215 C 903.163 72.3357 898.092 85.9213 896.273 90.8662 C 891.571 103.647 883.728 114.027 875.566 124.711 C 904.359 115.676 939.046 100.507 969.147 97.033 C 991.47 94.6502 1013.95 94.0392 1036.37 95.2056 C 1075.84 97.1574 1117.26 102.244 1156.45 96.2405 C 1174.52 93.4722 1196.49 85.3605 1213.8 79.1911 C 1190.17 105.059 1174.17 123.318 1147.58 145.561 C 1198.47 138.239 1244.73 141.205 1293.74 157.919 C 1375.37 185.761 1457.04 243.833 1547.16 230.538 C 1539.51 236.278 1532.42 239.198 1524.26 243.608 C 1494.62 259.626 1478.8 265.213 1446.59 270.554 C 1464.42 280.767 1485.94 287.756 1503.28 298.864 C 1571.76 342.717 1619.14 411.14 1687.61 455.673 C 1733.93 485.794 1772.83 505.093 1829.02 503.912 C 1816.85 509.741 1800.94 520.562 1788.19 527.25 C 1756.07 544.094 1732.26 549.497 1697.3 555.348 C 1703.53 563.973 1711.19 569.729 1718.82 577.083 C 1727.95 585.788 1736.29 595.279 1743.75 605.447 C 1809 693.183 1848.89 782.505 1966.16 808.142 C 1955.86 813.479 1943.93 819.979 1933.18 823.955 C 1887.96 840.671 1842.83 840.88 1795.81 837.787 C 1799.14 850.458 1807.26 863.911 1812.84 876.134 C 1844.05 944.477 1879.78 1016.79 1939.9 1064.37 C 1953.68 1075.27 1974.12 1082.53 1990.38 1088.26 C 1976.85 1095.11 1965.15 1100.75 1951.14 1106.03 C 1917.38 1118.74 1832.36 1118.32 1801.15 1102.66 C 1808.44 1113.83 1826.58 1139.27 1834.99 1149.2 C 1856.46 1174.56 1893.63 1197.12 1923.66 1211.6 C 1928.89 1214.12 1958.28 1222.52 1964.65 1223.98 C 1972.96 1225.86 1981.39 1227.14 1989.88 1227.79 C 1994.05 1228.12 2009.81 1227.97 2011.63 1228.63 C 2006.12 1236.08 1969.9 1256.88 1959.52 1262.25 C 1924.11 1280.57 1878.4 1286.55 1838.73 1285.89 C 1823.69 1285.63 1796.14 1278.43 1781.9 1273.73 C 1785.62 1287.61 1798.85 1313.69 1806.3 1326.25 C 1831.95 1369.42 1860.38 1400.96 1910.09 1413.8 C 1898.63 1419.45 1886.38 1422.9 1874 1425.91 C 1807.66 1442.02 1737.7 1429.35 1679.68 1394 C 1680.7 1415.17 1700.66 1460.7 1712.64 1478.85 C 1732.35 1508.71 1761.46 1540.73 1792.17 1559.01 C 1803.22 1565.58 1816.78 1568.95 1828.59 1573.98 C 1816.87 1575.81 1804.16 1579.83 1792.23 1581.33 C 1750.9 1586.52 1714.54 1588.8 1673.1 1582.44 C 1649.01 1578.74 1626.54 1572.84 1603.14 1565.72 C 1597.81 1564.25 1569.16 1552.34 1565.88 1554.26 C 1555.2 1560.52 1576.64 1621.33 1579.46 1628.18 C 1594.45 1664.72 1608.23 1680.07 1643.17 1695.32 C 1618.91 1693.85 1582.35 1690.52 1559.16 1683.96 C 1511.44 1670.47 1462.06 1641.57 1428.23 1605.46 C 1422.3 1635.14 1431.54 1678.23 1441.4 1706.63 C 1452.94 1739.87 1478.29 1773.4 1506.87 1794.24 C 1515.46 1800.5 1528.79 1806.56 1538.56 1811.31 L 1537.76 1812.26 C 1525.52 1814.14 1497.05 1810.5 1483.43 1809.22 C 1399.55 1801.35 1320.22 1740.65 1286.86 1664.01 C 1284.9 1659.51 1284.16 1649.8 1282.16 1647.2 C 1281.38 1647.74 1280.19 1648.71 1279.98 1649.67 C 1257.62 1748.68 1281.09 1860.08 1351.86 1935.05 C 1370.43 1954.72 1384.58 1965.55 1408.85 1976.51 C 1343.91 1977.9 1253.26 1957.5 1196.67 1926.71 C 1142.24 1897.11 1081.93 1834.17 1063.6 1774.09 C 1059.77 1761.57 1057.85 1758.95 1058.53 1746.15 L 1056.94 1746.82 C 1048.68 1758.05 1042.89 1802.74 1043.35 1817.55 C 1044.38 1850.88 1057.59 1893.65 1074.69 1922.61 C 1081.65 1935.18 1094.46 1950.31 1104.97 1959.94 C 1037.3 1934.11 975.861 1867.11 937.217 1807.36 C 918.559 1778.51 894.701 1722.07 891.541 1687.7 C 882.821 1702.63 877.412 1723.97 875.777 1741.09 C 869.343 1808.45 879.091 1876.5 931.564 1923.63 C 885.752 1908.2 812.927 1848.16 785.334 1808.06 C 733.45 1732.66 726.345 1672.31 740.584 1585.57 C 698.235 1668.91 689.135 1737.4 747.739 1816 C 740.655 1812.45 734.312 1807.76 727.625 1803.45 C 641.472 1747.87 578.396 1649.52 574.998 1545.77 C 574.485 1530.12 573.112 1507.75 577.345 1492.6 C 563.521 1502.42 552.636 1521.56 546.562 1537.1 C 524.76 1592.89 529.322 1632.63 552.419 1685.93 C 548.23 1681.46 544.61 1677.72 539.707 1673.94 C 442.634 1599.2 394.004 1509.24 475.781 1397.75 L 472.361 1398.51 C 439.462 1405.5 404.416 1431 385.134 1458.73 C 388.875 1397.12 425.241 1334.86 476.052 1300.42 C 514.827 1274.13 562.011 1257.08 563.529 1201.82 C 563.625 1198.32 563.381 1196.44 560.877 1193.8 C 550.5 1196.93 525.463 1211.43 514.278 1217.19 C 474.979 1237.43 419.638 1254.93 400.076 1298.02 C 391.614 1316.66 396.093 1333.93 403.786 1351.73 C 386.619 1346.77 363.558 1338.64 351.93 1324.33 C 354.425 1342.01 357.47 1347.77 365.308 1363.62 C 310.162 1356.27 247.314 1293.89 233.503 1241.58 C 227.404 1218.47 224.078 1167.4 235.887 1146.21 C 231.902 1140.61 228.36 1135.3 224.5 1129.63 C 198.559 1091.51 194.987 1034.86 204.816 990.295 C 211.867 1015.01 227.315 1065.37 252.745 1075.09 C 249.925 1042.18 250.303 1009.65 262.732 978.561 C 268.618 1006.34 273.455 1026.94 288.101 1052.5 C 307.521 1049.45 314.713 1046.21 330.73 1035.96 C 364.107 1014.61 360.037 975.599 376.947 943.456 C 385.978 926.29 399.285 913.225 414.698 901.153 C 401.909 859.547 374.666 805.491 344.127 774.296 C 313.885 743.404 280.652 733.421 238.576 732.66 C 238.035 733.778 237.516 734.907 237.021 736.047 C 214.773 786.946 214.528 830.457 234.978 881.795 C 201.348 857.157 177.188 814.308 163.332 775.019 C 159.911 765.319 158.907 748.601 154.777 735.615 L 153.743 735.543 C 150.56 741.646 150.688 750.817 149.478 757.508 C 142.275 797.363 153.847 832.7 164.659 871.554 C 157.5 863.693 150.654 855.553 144.136 847.153 C 113.963 807.462 91.1934 744.858 97.9934 695.197 C 57.8148 671.687 50.995 630.362 60.0083 586.663 C 62.7868 573.192 70.9529 559.908 70.4787 546.247 C 69.8318 527.612 56.5843 511.909 53.0245 494.041 C 49.9373 471.598 67.908 471.921 80.7154 464.84 C 86.221 459.738 91.7108 450.212 96.1422 444.37 C 114.631 419.993 145.03 420.398 168.522 409.04 C 190.79 398.273 206.484 379.645 233.792 373.334 C 257.546 367.844 279.062 364.42 303.493 362.959 C 341.115 359.03 371.774 349.793 401.276 325.313 C 412.515 315.988 424.54 305.719 438.149 300.044 C 451.966 294.284 467.903 290.586 482.606 287.664 C 488.71 286.451 503.699 285.635 508.438 283.586 C 519.345 278.87 533.183 268.38 543.941 262.936 C 569.768 249.87 597.879 238.97 622.206 223.216 C 655.97 201.352 675.249 165.281 713.364 147.33 C 727.047 140.886 747.461 131.889 762.023 128.083 C 819.595 113.035 863.063 117.277 902.237 67.8215 z M 217.948 468.932 L 218.572 468.523 C 234.838 458.044 244.136 444.609 263.002 436.018 C 284.538 426.21 317.429 433.153 338.569 441.298 C 334.277 440.732 329.961 440.355 325.636 440.17 C 311.876 439.483 289.914 439.059 277.472 445.193 C 251.419 456.592 234.666 483.322 209.497 496.209 C 168.38 517.262 114.274 533.135 107.642 588.445 C 108.269 597.467 111.899 626.079 118.68 631.766 C 172.287 676.721 246.185 681.208 310.096 681.067 C 300.511 675.737 243.512 655.541 242.409 654.157 C 250.835 649.85 296.394 662.515 306.082 665.262 C 386.393 688.039 449.952 740.853 486.493 816.508 C 500.275 845.04 530.836 943.044 518.034 974.136 C 487.598 1046.02 438.8 1129.76 371.137 1171.66 C 341.469 1190.03 274.34 1177.97 242.746 1166.55 C 240.042 1167.63 241.092 1166.77 239.508 1169.24 C 239.684 1170.05 239.859 1171.2 240.427 1171.79 C 267.137 1197.63 347.077 1197.11 376.1 1181.23 C 417.947 1158.33 451.184 1110.91 478.915 1073.21 C 506.052 1036.31 530.251 992.516 545.15 948.816 C 545.093 948.559 545.035 948.301 544.978 948.044 L 544.714 946.753 C 540.379 926.309 541.669 907.762 536.117 885.928 C 513.514 797.043 467.889 744.046 393.09 694.576 C 374.543 682.309 359.097 671.052 338.882 658.984 C 324.351 650.443 309.646 642.201 294.778 634.262 C 283.128 627.943 266.928 620.092 257.427 611.64 L 256.321 610.648 C 300 618.819 344.975 645.383 381.803 669.084 C 396.294 655.148 396.791 640.783 397.957 622.022 C 379.619 616.639 362.895 607.855 342.985 602.529 C 328.1 598.693 313.137 595.166 298.106 591.949 C 287.04 589.617 273.329 587.322 262.995 583.599 L 268.139 583.04 C 304.859 578.704 361.998 595.931 396.794 606.366 C 392.472 582.231 395.954 584.923 381.606 560.512 C 357.31 552.592 308.54 558.163 284.338 564.707 C 272.962 567.783 261.302 571.936 249.484 574.672 C 270.777 555.761 311.303 549.547 338.656 546.244 C 348.659 545.036 357.383 542.984 367.336 544.975 C 344.538 525.314 327.989 514.059 297.534 510.662 C 266.812 507.544 236.151 517.122 212.667 537.173 C 204.792 543.962 198.118 553.025 190.002 559.266 C 198.717 541.332 210.518 529.013 226.904 517.527 C 266.502 489.772 321.969 493.968 362.032 518.494 C 371.807 524.477 384.269 541.197 396.077 544.66 C 442.564 547.257 488.517 551.883 534.282 561.071 C 612.94 576.863 691.852 602.291 751.387 658.618 C 767.438 672.513 777.463 690.589 789.996 706.925 C 804.339 725.619 807.95 755.078 820.339 772.456 C 822.499 745.088 811.742 705.342 799.203 681.171 C 762.579 610.575 715.509 566.586 640.287 541.567 C 683.709 531.272 744.504 543.525 783.365 565.818 C 786.102 567.388 784.475 567.098 787.679 567.692 C 785.194 552.724 764.305 538.486 753.189 528.81 C 750.6 526.555 744.246 525.524 742.171 523.19 C 744.574 522.691 743.408 523.048 745.67 522.122 C 746.966 514.659 746.202 501.01 746.203 493.151 C 746.209 443.302 731.251 393.711 685.648 367.668 C 681.269 365.167 678.29 366.525 675.636 362.244 L 675.844 361.946 C 687.797 358.612 726.514 371.335 737.995 377.217 C 755.798 386.336 773.489 402.57 786.46 417.636 C 771.935 384.056 759.242 369.02 729.849 348.311 C 693.76 322.885 663.283 313.488 619.5 311.718 C 640.017 305.062 655.71 301.191 677.224 298.007 C 677.48 294.045 678.787 290.969 679.019 285.279 C 624.979 283.295 576.929 292.629 524.195 303.128 C 505.895 306.772 484.285 308.365 466.573 313.07 C 458.887 315.148 451.438 318.023 444.348 321.647 C 411.726 338.187 392.107 365.012 352.952 374.798 C 321.898 385.259 285.501 382.777 254.29 390.604 C 226.051 397.685 196.073 420.684 168.945 432.123 C 145.421 442.041 124.335 443.042 108.893 464.685 C 104.182 470.002 101.332 475.541 98.4616 481.995 C 96.1647 490.221 94.8076 495.396 93.3935 503.85 C 92.7094 513.043 93.2525 521.466 95.8757 530.408 C 96.9543 522.033 96.6142 515.297 96.4076 506.928 C 97.6273 497.461 99.3068 491.483 102.616 482.656 C 105.027 477.427 109.028 472.829 112.359 467.95 C 131.208 450.381 159.433 448.786 183.522 452.713 C 197.61 455.01 206.518 460.911 217.948 468.932 z M 415.018 630.464 C 410.345 653.751 407.363 656.966 392.536 675.046 C 437.288 700.541 481.27 732.566 511.416 774.87 C 515.482 780.575 518.57 786.944 522.201 792.927 C 527.413 801.516 533.817 809.669 537.632 819.01 C 551.839 853.798 573.728 931.199 558.771 966.137 C 532.679 1027.09 442.32 1169.74 380.434 1194.34 C 352.486 1205.45 322.376 1203.49 293.085 1201.77 C 285.18 1201.31 276.941 1201.73 269.146 1200.28 C 259.868 1198.56 251.306 1195 242.673 1191.3 C 244.456 1206.6 247.735 1222.06 257.431 1234.55 C 261.095 1227.13 271.255 1204.43 280.355 1204.46 C 282.89 1209.51 276.036 1226.68 276.254 1235.62 C 277.174 1273.26 291.14 1289.52 314.102 1314.36 C 311.999 1298.09 310.258 1283.58 318.086 1268.38 C 321.503 1261.75 328.78 1246.36 335.384 1244.02 L 336.359 1244.82 C 337.742 1252.92 335.114 1258.12 335.323 1265.78 C 335.632 1277.14 342.622 1289.98 351.199 1297.37 C 355.802 1301.33 364.457 1310.56 370.597 1310.45 C 359.437 1285.3 390.6 1248.2 409.71 1235.13 C 444.449 1211.37 483.538 1195.82 519.769 1173.95 C 545.08 1158.68 580.334 1127.54 607.469 1119.45 C 566.116 1113.26 542.269 1122.64 506.8 1143.24 C 537.728 1096.32 573.469 1057.41 633.792 1062.78 C 640.172 1063.35 644.294 1062.13 650.616 1064.69 L 650.215 1063.25 C 643.315 1058.44 641.14 1055.61 635.033 1050.57 C 622.273 1040.06 603.384 1035.08 587.523 1031.21 C 601.654 1014.86 610.563 1000.89 621.838 982.61 C 658.059 998.036 706.886 1039.53 711.319 1081.87 C 713.461 1102.33 706.935 1131.34 699.87 1150.48 C 716.803 1130.26 717.482 1123.11 723.482 1097.88 C 730.868 1112.7 741.875 1145.52 748.305 1162.42 C 748.663 1161.4 749.022 1160.39 749.381 1159.37 C 752.743 1149.64 760.08 1141.2 764.454 1131.99 C 772.087 1115.92 778.106 1099 782.562 1081.78 C 788.474 1101.15 792.165 1116.67 794.97 1136.91 C 798.786 1156.32 800.633 1169.07 798.672 1189.3 C 799.963 1197.14 797.291 1201.11 796.415 1207.94 C 790.3 1255.65 755.417 1302.82 726.085 1340.55 C 649.298 1439.3 600.129 1530.78 656.523 1656.18 C 655.525 1651.79 654.594 1647.39 653.732 1642.97 C 649.093 1619.37 648.943 1607.47 648.825 1583.74 C 648.193 1531.89 662.275 1480.93 689.437 1436.76 C 697.472 1423.75 709.254 1408.05 718.133 1395.28 C 739.204 1364.97 761.145 1335.39 781.644 1304.72 C 808.938 1263.88 824.549 1229.21 824.192 1179.08 C 824.057 1160.16 823.062 1148.62 820.081 1129.78 C 817.158 1111.3 790.577 1037.26 776.891 1028.16 L 775.662 1028.61 L 777.597 1031.96 C 774.406 1042.99 776.374 1052.85 774.539 1063.13 C 769.796 1089.69 762.925 1109.21 752.094 1133.58 C 729.646 1075.92 707.87 1027.32 657.957 987.734 C 648.165 979.969 639.085 971.058 628.334 964.157 C 613.358 954.545 596.773 948.592 581.648 939.331 L 580.149 938.403 C 591.955 937.686 601.525 933.432 613.095 930.786 C 646.867 923.062 663.573 937.036 692.014 949.445 L 693.212 949.958 C 693.098 946.627 692.869 943.994 692.365 940.554 C 685.75 895.347 675.209 836.811 638.134 806.145 C 635.743 804.167 635.985 804.735 633.434 802.043 L 633.719 800.775 C 635.417 800.879 636.891 801.252 638.429 801.38 C 678.181 804.696 704.059 811.073 735.883 838.588 C 734.498 835.166 733.087 831.754 731.651 828.352 C 709.386 775.579 662.801 719.081 614.874 687.918 C 606.852 682.702 597.822 675.92 589.049 672.343 C 609.394 671.14 670.165 671.48 689.276 677.959 C 660.697 651.265 630.197 635.646 594.963 619.333 C 536.393 592.214 467.618 562.911 402.157 559.859 C 410.316 575.255 414.995 590.034 415.391 607.443 C 414.84 613.52 424.958 614.836 430.927 617.485 C 468.851 634.314 505.168 657.444 535.306 686.598 C 575.486 725.465 609.797 781.276 618.97 837.021 C 620.68 847.417 626.38 894.874 620.752 902.471 L 619.05 902.468 C 617.443 898.703 617.044 877.152 615.744 870.185 C 612.245 851.433 607.82 834.334 601.142 816.323 C 571.26 735.734 491.8 665.732 415.018 630.464 z M 897.725 916.877 C 875.029 895.602 846.94 871.828 818.045 859.424 C 821.95 868.236 827.665 881.384 829.876 890.596 C 835.942 915.861 839.289 971.488 833.051 996.249 C 815.278 981.781 807.482 975.67 785.02 971.132 C 802.208 983.138 832.768 1005.42 843.451 1023.18 C 855.821 985.67 856.837 937.504 847.607 899.109 C 862.634 908.041 878.342 926.446 890.905 939.568 C 968.952 1020.34 1042.9 1156 973.315 1263.99 C 933.455 1325.85 857.015 1379.3 798.18 1423.9 C 723.419 1480.58 649.189 1553.78 675.767 1658.06 C 674.914 1470.71 906.827 1417.33 993.948 1277.32 C 1014.33 1244.93 1025.08 1207.42 1024.95 1169.15 C 1024.68 1104.63 998.873 1039.85 960.803 988.099 C 948.92 971.944 932.531 956.451 919.081 940.75 C 916.844 865.388 919.027 856.953 885.352 786.728 C 909.91 796.883 934.791 806.017 959.423 815.923 C 978.724 823.685 997.778 832.332 1017.21 839.713 C 1086.75 866.128 1177.06 899.276 1237.25 942.408 C 1282.57 974.885 1326.4 1027.3 1347.7 1078.91 C 1381.06 1159.76 1379.25 1249.1 1345.51 1329.66 C 1327.41 1372.86 1302.02 1411.21 1272.26 1447.18 C 1265.41 1455.46 1258.19 1465.17 1249.85 1471.91 L 1247.6 1470.64 C 1280.69 1412.13 1300.98 1364.2 1290.52 1294.5 C 1273.69 1182.38 1195.5 1096.46 1107.62 1031.32 C 1066.77 1001.05 1021.72 973.353 981.331 942.991 C 970.188 933.249 962.823 925.64 953.274 914.286 C 947.295 907.178 939.552 896.441 932.791 890.796 C 945.392 913.022 960.475 928.86 978.283 946.674 C 998.128 966.554 1019.13 985.241 1041.19 1002.64 C 1147.76 1087.39 1266.61 1183.93 1268.13 1332.41 C 1268.72 1390.16 1248.28 1435.22 1214.14 1480.22 C 1149.53 1571.08 1018.7 1624.12 1010.53 1748.68 C 1024.48 1720.99 1030.3 1702.77 1049.69 1677.03 C 1079.22 1637.85 1113.71 1607.79 1151.7 1577.34 C 1230.48 1514.17 1315.59 1455.85 1358.84 1361.05 C 1370.17 1336.22 1374.8 1319.55 1382.74 1293.98 C 1404.05 1225.43 1398.74 1154.81 1377.27 1087.2 C 1346.93 991.65 1264.72 922.48 1176.88 880.4 C 1157.69 871.207 1133.51 861.523 1113.34 853.269 C 1025.57 817.349 935.479 788.236 847.051 753.364 C 857.584 767.43 860.558 776.746 868.358 791.697 C 890.225 833.614 899.395 869.281 897.725 916.877 z M 1795.75 804.124 C 1797.85 805.042 1824.44 799.527 1828.64 798.695 C 1830.88 798.638 1835.86 798.221 1837.62 796.982 C 1831.68 795.187 1825.75 796.148 1819.66 796.804 C 1814.88 797.416 1792.89 798.574 1790.87 799.36 C 1787.71 799.379 1788.47 799.203 1785.92 798.555 C 1769.72 794.441 1752.69 794.775 1736.17 792.542 C 1707.31 788.643 1676.23 782.928 1648.12 775.741 C 1605.76 764.912 1564.9 744.871 1523.85 729.778 C 1484.77 715.411 1446.62 699.89 1407.75 684.59 C 1327.62 653.054 1244.01 623.876 1176.43 568.65 C 1168.03 561.778 1154.82 549.796 1148.98 540.79 L 1149.7 539.615 C 1154.32 532.131 1159.84 525.407 1164.96 518.278 C 1210.26 455.26 1230.73 371.945 1186.21 302.601 C 1411.79 339.479 1412.03 558.697 1577.13 671.914 C 1583.79 676.481 1599.8 688.007 1607.07 689.792 L 1607.4 689.222 C 1601.14 683.682 1592.06 679.464 1584.89 673.653 C 1452.37 566.183 1430.29 362.703 1255.83 299.482 C 1214.74 284.592 1175.05 273.931 1130.7 275.065 C 1158.83 294.011 1182.21 323.175 1188.7 356.972 C 1199.07 410.968 1177.27 465.586 1147.36 509.475 C 1142.26 516.955 1126.75 532.947 1128.67 542.038 C 1133.62 565.398 1199.06 612.263 1220.07 624.688 C 1304.4 674.564 1391.15 702.834 1481.27 738.601 C 1522.8 755.084 1563.11 775.453 1606.28 787.453 C 1654.88 801.381 1705.2 808.368 1755.76 808.205 C 1763.4 808.135 1784.02 807.129 1791.77 805.253 C 1793.11 804.934 1794.44 804.557 1795.75 804.124 z M 1783.54 1362 C 1776.14 1352.45 1762.67 1343.64 1754.04 1333.54 C 1678.83 1245.44 1649.26 1131.4 1580.58 1039.6 C 1483.26 918.24 1335.28 862.036 1192.41 813.978 C 1105.59 784.773 1014.62 760.392 942.549 701.229 C 865.662 638.114 860.897 538.888 804.097 463.62 C 801.331 459.954 794.492 449.55 791.339 447.591 C 802.034 469.663 814.756 491.638 822.518 515.014 C 840.079 568.465 852.762 620.501 886.063 667.109 C 937.588 739.223 1027.24 782.403 1109.02 811.037 C 1239 856.542 1380.43 895.757 1489.48 984.029 C 1523.13 1011.04 1552.64 1042.83 1577.09 1078.38 C 1596.51 1106.83 1610.54 1135.6 1627.16 1165.83 C 1660.87 1227.14 1699.47 1296.59 1753.43 1342.45 C 1759.84 1347.9 1775.87 1359.66 1783.54 1362 z M 1862.17 1223.95 C 1854.74 1219.96 1847.43 1218.45 1840.03 1215.05 C 1826.13 1208.65 1810.05 1200.86 1797.6 1192.12 C 1770.46 1173.06 1746.37 1149.99 1726.16 1123.69 C 1715.2 1109.57 1705.92 1097.54 1696.82 1082.03 C 1667.28 1031.69 1650.37 976.972 1622.46 925.412 C 1592.03 868.565 1549.93 818.79 1498.91 779.348 C 1455.93 746.128 1387.19 718.598 1335.54 703.282 C 1306.29 694.609 1270.43 688.388 1240.32 681.296 C 1223.68 677.378 1205.58 675.776 1189.34 671.696 C 1113.8 652.707 1043.82 629.09 977.433 587.281 C 931.72 558.49 909.079 531.131 876.777 488.713 C 871.447 481.713 851.626 455.888 846.958 452.031 C 848.666 458.621 858.743 473.778 862.767 480.866 C 899.561 545.682 944.161 589.331 1008.46 626.914 C 1045.9 648.566 1085.74 665.762 1127.18 678.15 C 1263.53 719.22 1412.64 721.388 1520.13 830.41 C 1586.46 897.684 1613.29 956.525 1649.74 1040.9 C 1678.72 1107.96 1734.63 1176.37 1802.09 1204.82 C 1814.19 1210.19 1850.19 1224.06 1862.17 1223.95 z M 954.729 1576.31 L 952.9 1576.94 C 951.804 1596.8 950.525 1637.38 958.125 1655.53 L 959.548 1655.76 C 965.688 1692 982.81 1761.88 1002.04 1793.15 C 998.179 1764.4 990.697 1736.23 986.573 1708.07 C 979.188 1657.64 974.53 1603.31 981.513 1552.68 C 988.911 1499.04 1017.93 1471.03 1049.66 1431.59 C 1090.38 1380.98 1129.11 1320.91 1127.24 1253.54 C 1126.08 1211.89 1107.4 1154.3 1077.04 1125.57 C 1097.47 1157.71 1108.54 1194.92 1109 1233.01 C 1109.87 1304.75 1072.59 1365.54 1028.92 1419.28 C 984.97 1473.36 960.266 1503.73 954.729 1576.31 z M 314.051 1081.02 C 320.804 1084.56 324.344 1084.71 331.785 1083.2 C 375.334 1074.37 413.216 1048.5 433.456 1008.43 C 447.039 981.549 463.272 956.473 483.896 934.28 C 483.866 923.109 479.894 901.923 475.588 891.79 L 474.816 891.261 C 427.656 902.26 388.439 943.842 378.643 990.183 C 368.265 1039.27 343.248 1051.25 298.48 1066.9 C 303.605 1071.68 308.795 1076.39 314.051 1081.02 z M 1664.7 1484.43 C 1660.68 1473.92 1652.41 1463.89 1647.57 1453.73 C 1631.13 1419.24 1620.59 1383.29 1611.75 1346.55 C 1597.23 1286.2 1580.11 1224.6 1532.6 1181.27 C 1502.91 1152.37 1482.15 1137.83 1443.83 1120.7 C 1426.92 1113.14 1411.65 1107.16 1393.22 1103.58 C 1395.7 1111.27 1397.56 1120.5 1400.31 1127.47 C 1414.65 1133.91 1430.2 1138.11 1444.91 1146.45 C 1510.23 1183.5 1546.28 1223.45 1574.18 1297.41 C 1591.2 1342.53 1621.64 1446.91 1663.71 1484.11 C 1664.04 1484.21 1664.37 1484.32 1664.7 1484.43 z M 1673.97 1533.94 C 1677.87 1534.11 1681.01 1534.78 1684.38 1533.4 C 1678.16 1531.82 1674.94 1531.91 1668.76 1529.57 C 1650.75 1522.76 1634.19 1516.15 1617.02 1507.29 C 1551.5 1473.46 1490.19 1430.59 1444.94 1371.54 C 1431.8 1354.44 1421.44 1334.59 1410.46 1316.16 C 1406.95 1310.26 1399.71 1296.29 1396.05 1291.51 C 1392.33 1302.58 1389.04 1314.26 1385.71 1325.49 C 1393.56 1337.46 1400.6 1350.78 1408.43 1362.53 C 1419.74 1379.52 1435.71 1400.98 1450.07 1416.17 C 1503.74 1472.88 1582.21 1512.57 1657.26 1531.87 C 1661.25 1532.89 1669.8 1533.58 1673.97 1533.94 z M 1050.57 247.983 C 1043.37 246.417 1034.87 245.055 1029.16 240.293 C 1024 229.319 1085.93 207.861 1095.84 205.056 C 1119.93 198.243 1142.56 196.311 1167.32 194.416 C 1212.63 191.48 1279.74 204.423 1323.54 216.263 C 1342.82 221.474 1363.8 229.504 1382.64 233.85 C 1378.4 229.578 1371.68 226.355 1366.19 223.592 C 1321.64 201.165 1273.92 183.747 1224.21 177.632 C 1211.75 176.098 1200.56 174.102 1187.99 174.054 C 1183.26 174.081 1178.54 174.196 1173.81 174.401 C 1105.14 180.071 1048.2 193.015 994.614 240.26 L 994.284 241.508 C 1013.56 243.916 1031.61 248.26 1050.57 247.983 z M 751.194 306.955 C 788.347 322.283 817.634 339.269 842.569 372.21 C 845.833 381.016 858.848 394.942 859.832 404.368 C 860.022 406.19 859.614 405.235 861.402 406.819 L 862.01 406.265 C 862.162 396.087 850.647 373.288 845.485 363.835 C 823.285 326.021 784.617 298.603 741.069 291.543 C 737.547 290.412 734.356 290.07 730.712 289.517 C 725.722 292.191 722.075 295.413 717.666 298.942 C 728.718 300.827 741.359 302.058 751.194 306.955 z M 1054.85 459.729 C 1056.61 464.09 1059.65 467.854 1060.84 470.837 L 1059.8 473.884 C 1055.83 475.641 1052.9 476.276 1052.33 481.53 C 1050.96 494.293 1042.88 497.114 1037.75 506.067 L 1038.37 507.462 C 1056.15 511.635 1095.14 472.465 1102.61 456.676 C 1113.49 433.678 1126.17 412.124 1118.18 385.469 C 1115.59 371.652 1098.18 349.279 1082.45 351.54 C 1057.33 355.151 1024.02 368.06 999.17 375.562 C 1012.28 382.055 1027.36 389.97 1039.62 397.804 L 1043.01 400.53 C 1045.55 403.241 1049.32 406.995 1051.36 409.934 C 1046.73 410.489 1041.77 409.922 1036.43 410.429 C 1031.79 408.611 1028.49 406.842 1023.56 406.881 L 1022.88 407.822 C 1025.72 411.052 1028.85 411.999 1032.81 413.789 C 1042.58 421.04 1052.55 424.936 1061.02 430.681 C 1057.43 432.671 1056.08 433.277 1052.23 434.729 C 1047.23 435.448 1034.09 435.578 1032.47 437.547 C 1040.43 446.074 1045.07 447.99 1054.85 459.729 z M 1099.92 496.95 C 1103.81 497.81 1103.97 498.073 1107.22 500.566 C 1114.01 492.891 1121.12 484.273 1126.62 475.633 C 1131.31 469.258 1133.34 465.682 1137.14 458.662 C 1168.56 411.304 1169.7 336.17 1109.54 310.949 C 1065.98 292.684 1013.84 315.583 972.916 332.085 C 970.718 332.746 966.771 333.788 964.952 334.669 L 965.081 336.03 C 960.966 337.729 960.402 337.801 955.939 338.472 L 954.5 340.079 C 955.474 343.303 955.457 342.509 958.274 345.18 C 964.335 345.641 971.216 345.503 977.064 343.754 L 978.599 343.573 C 1022.15 338.275 1071.39 306.027 1113.62 338.592 C 1127.97 349.653 1136.36 365.286 1138.27 383.216 C 1141.43 412.73 1135.5 429.107 1126.29 455.672 C 1120.35 466.409 1111.51 478.999 1106.37 488.634 C 1103.51 491.544 1102.26 493.561 1099.92 496.95 z M 1018.36 139.128 C 1026.54 138.2 1034.09 136.969 1042.41 136.15 C 1049.79 134.687 1053.07 136.107 1060.45 133.075 C 1056.62 131.114 1057.55 132.528 1056.47 129.453 L 1036.83 131.093 C 1026.85 130.783 1019.21 131.742 1010.23 131.619 C 1003.61 131.721 993.135 132.815 986.64 134.191 C 963.943 136.662 946.243 139.167 924.119 146.426 C 915.702 148.797 899.072 154.938 891.801 159.593 C 870.35 170.517 851.103 190.123 837.466 209.7 C 874.332 183.246 877.262 176.44 923.614 159.738 C 924.921 159.536 928.314 158.13 929.736 157.593 C 946.995 151.875 974.285 149.014 987.446 144.027 C 997.178 143.765 1008.89 141.321 1018.36 139.128 z M 1417.51 1470.73 C 1431.27 1479.39 1437.99 1483.7 1448.96 1496.11 C 1479.22 1530.34 1497.37 1604.1 1537.74 1629.45 C 1532.28 1619.01 1522.44 1609.85 1517.89 1599.17 C 1500.14 1557.53 1487.07 1513.17 1447.47 1486.19 C 1438.72 1480.23 1427.98 1473.25 1417.51 1470.73 z M 799.132 158.125 L 797.894 155.22 C 790.941 155.97 776.15 156.698 770.242 157.805 C 727.216 160.311 689.99 198.636 669.03 233.726 C 677.917 226.493 684.044 217.176 692.275 209.845 C 715.814 188.876 745.645 172.375 775.967 163.717 C 779.743 163.266 794.626 159.235 799.132 158.125 z M 960.328 450.249 C 965.207 454.205 968.552 456.383 974.512 458.655 L 976.945 455.864 L 968.367 448.986 C 963.266 445.052 957.1 438.708 952.346 434.061 C 949.852 431.66 947.213 428.631 944.843 426.053 C 926.372 399.684 913.677 370.988 901.596 341.245 C 897.357 341.591 896.698 341.393 893.269 343.605 L 892.297 345.75 C 897.686 373.683 922.012 417.884 943.792 435.66 C 946.111 437.888 948.111 439.769 950.555 441.856 C 954.28 445.911 955.823 446.993 960.328 450.249 z M 1435.54 331.683 C 1456.54 344.227 1474.86 357.049 1491.99 374.739 C 1504.12 387.262 1514.46 401.049 1525.78 414.257 C 1555.54 447.799 1594.22 478.05 1638.75 487.853 C 1639.02 487.941 1639.28 488.029 1639.55 488.117 C 1645.63 489.504 1648.45 490.566 1654.58 489.697 C 1652.24 487.705 1650.18 487.809 1646.83 487.109 L 1643.96 484.914 C 1639.62 484.88 1630.56 479.793 1626.08 477.632 C 1606.21 468.151 1587.82 455.822 1571.5 441.035 C 1528.36 402.072 1495.06 350.3 1437.95 327.245 L 1426.85 322.942 C 1419.95 320.009 1403.63 314.93 1396.5 315.955 C 1402.56 318.246 1412.91 322.172 1419.14 323.629 L 1435.54 331.683 z M 229.829 699.487 C 213.201 696.535 193.501 693.796 177.705 687.852 C 166.017 728.585 173.968 778.751 194.409 815.541 C 198.53 822.958 203.056 830.278 207.124 837.779 C 205.708 828.595 205.649 823.468 204.796 814.762 C 201.272 776.501 218.259 735.261 229.829 699.487 z M 102.829 644.949 C 93.8786 622.123 88.1946 603.884 89.3778 579.05 C 89.4612 577.298 87.2563 576.364 86.001 575.664 C 74.9039 594.634 72.8667 622.692 78.7679 643.768 C 79.9506 647.992 81.3807 653.371 85.4726 655.591 L 88.8977 654.23 L 102.829 644.949 z M 1250.03 1886.67 C 1213.18 1864.59 1187.1 1824.82 1176.81 1783.35 C 1166.23 1740.73 1171.23 1694.26 1180.08 1651.63 C 1181.47 1644.93 1189.77 1612.87 1190 1609.54 C 1175.44 1637.1 1162.37 1660.52 1156.56 1691.88 C 1141.69 1772.18 1170.2 1849.87 1246.24 1887.05 C 1249.1 1889.29 1266.09 1898 1269.24 1897.65 C 1263.39 1893.53 1256.74 1889.21 1250.03 1886.67 z M 1616.04 575.115 C 1623.07 579.679 1629.7 582.264 1636.99 586.048 C 1670.01 606.083 1683.38 638.129 1705.03 668.194 C 1730.77 703.944 1764.22 740.639 1807.72 753.222 C 1783.21 735.172 1762.17 722.607 1742 698.044 C 1707.6 656.154 1691.46 607.336 1638.74 584.18 C 1629.63 579.047 1626.44 577.84 1616.04 575.115 z M 961.854 279.145 L 961.983 285.127 C 970.94 287.161 977.725 287.538 986.796 287.532 C 979.629 284.504 969.323 281.48 961.854 279.145 z M 435.786 892.293 C 438.646 882.067 438.204 874.033 435.878 863.907 C 422.037 803.639 397.124 756.554 343.263 723.193 C 334.609 717.448 332.243 715.93 322.705 712.291 C 317.226 708.816 305.202 705.189 298.841 704.255 L 298.111 705.643 C 306.869 709.156 316.713 712.856 325.197 716.799 C 331.578 719.944 336.143 722.565 342.254 726.244 C 385.603 759.387 412.267 801.394 426.797 853.959 C 430.3 866.631 432.254 879.553 435.786 892.293 z M 489.478 1349.06 C 508.162 1338.52 523.544 1334.38 543.485 1327.43 C 572.857 1317.23 598.915 1304.24 622.878 1284.02 C 639.199 1270.25 646.989 1260.94 653.677 1240.42 C 662.079 1214.64 654.432 1171.49 624.289 1163.43 C 625.488 1170.14 628.13 1175.7 629.46 1181.99 C 634.611 1206.35 637.278 1232.66 621.965 1254.08 C 601.355 1284.54 562.729 1300.35 531.261 1317.55 C 519.44 1324.1 507.972 1331.26 496.904 1339.01 C 488.818 1344.68 480.007 1350.86 473.494 1358.28 C 478.792 1355.22 484.146 1352.05 489.478 1349.06 z M 488.303 1571.66 L 490.456 1573.72 L 491.401 1573.02 C 482.894 1531.85 493.086 1481 515.641 1445.25 C 523.889 1432.18 535.646 1421.04 547.203 1410.97 C 551.274 1407.36 569.616 1394.92 570.783 1392.94 L 570.021 1391.44 L 567.544 1390.94 C 494.519 1415.57 465.583 1486.02 482.758 1559.34 C 483.484 1562.44 486.754 1568.77 488.303 1571.66 z M 143.957 722.267 C 134.208 718.368 124.341 714.719 115.063 709.844 L 113.575 709.074 L 112.688 708.599 C 108.869 740.575 114.266 769.393 127.832 798.506 C 129.44 801.957 133.491 811.565 136.421 813.541 L 136.817 812.067 C 134.944 783.827 134.661 749.006 143.957 722.267 z M 106.113 672.875 C 119.954 678.845 137.846 691.174 152.235 694.718 L 157.641 696.634 C 160.872 694.634 163.722 684.406 162.186 680.622 C 153.767 677.563 125.056 665.32 119.671 664.662 C 114.867 667.407 110.742 669.775 106.113 672.875 z M 166.896 461.086 C 161.705 462.185 159.135 461.339 152.936 463.049 C 161.379 463.843 176.76 466.086 181.775 473.11 C 185.637 478.52 183.043 480.825 183.479 485.928 C 186.938 484.283 196.878 480.421 198.803 478.086 C 200.829 465.946 175.891 463.374 168.631 461.518 L 166.896 461.086 z M 825.798 1780.32 L 827.662 1779.35 C 828.303 1772.4 824.297 1756.93 824.216 1749.45 C 823.869 1723.17 827.854 1698.91 836.187 1674 C 856.595 1612.98 932.102 1571.52 917.133 1500.52 C 915.905 1494.69 913.38 1480.48 908.194 1477.45 C 907.597 1529.58 903.717 1544.76 868.208 1585.35 C 834.225 1624.2 807.829 1668.72 811.653 1721.8 C 812.284 1738.76 816.736 1765.73 825.798 1780.32 z M 246.794 1130.81 L 253.788 1123.27 C 257.031 1119.84 260.779 1115.67 264.248 1112.59 C 261.75 1105.89 258.728 1097.51 255.65 1091.1 C 226.068 1089.45 225.574 1066.17 211.249 1048.69 C 213.1 1076.19 226.721 1111.92 246.794 1130.81 z M 1358.3 1472.66 C 1315.27 1569.82 1324.16 1619.22 1389.01 1702.35 L 1395.63 1708.82 C 1348.79 1636.75 1334.15 1579.97 1353.13 1494.94 C 1354.24 1489.99 1359.35 1476.18 1358.3 1472.66 z M 1667.93 838.044 C 1726.94 869.148 1741.74 907.449 1771.44 963.009 C 1790.91 999.44 1834.56 1052.43 1876.41 1062.82 C 1873.1 1057.94 1855.71 1051.25 1850.03 1046.58 C 1841.81 1039.84 1833.99 1031.98 1827.47 1023.59 C 1783.77 967.416 1765.74 891.458 1701.58 852.395 C 1693.06 847.209 1677.87 839.718 1667.93 838.044 z M 1231.65 454.707 C 1239.32 472.203 1247.07 483.347 1262.31 495.256 C 1317.31 538.242 1396.23 535.321 1447.62 584.64 C 1457.06 593.693 1466.76 602.175 1474.11 613.241 C 1474.94 614.488 1475.75 615.316 1476.8 616.345 L 1478.31 616.214 C 1478.12 615.951 1477.93 615.688 1477.74 615.425 C 1469.61 601.61 1466.6 593.096 1455.84 580.255 C 1428.49 547.626 1391.57 531.069 1351.34 520.455 C 1345.72 518.974 1343.66 516.537 1338.46 515.415 C 1338.54 515.421 1334.89 515.138 1335.07 515.176 C 1309.56 509.666 1284.59 499.963 1262.43 486.212 C 1248.55 477.597 1241.81 462.709 1231.65 454.707 z M 264.003 1033.36 C 262.506 1039.9 263.101 1045.71 263.311 1052.94 C 264.494 1093.66 279.04 1143.02 324.599 1152.63 C 329.499 1153.66 332.492 1152.06 335.811 1148.42 C 339.831 1141.45 342.953 1134.59 341.006 1126.3 C 340.182 1122.86 338.477 1119.69 336.059 1117.11 C 324.375 1104.4 301.744 1094.33 290.116 1079.33 C 279.749 1065.96 270.315 1051.59 265.91 1035.18 L 264.003 1033.36 z" fill="rgb(0,0,0)" transform="translate(0,0)"></path>
<path d="M 565.965 326.497 C 567.857 326.018 579.359 326.145 581.025 326.471 C 633.213 335.963 717.223 412.22 674.982 469.381 C 635.115 523.329 547.375 545.815 486.158 518.409 C 478.315 514.342 470.994 507.018 463.741 502.413 C 418.248 473.531 345.336 468.617 293.823 476.893 C 306.702 471.452 315.916 471.011 329.366 469.115 C 374.093 462.938 422.794 467.425 464.366 485.695 C 484.615 494.595 498.071 510.142 522.6 512.095 C 542.917 513.712 559.828 511.116 579.596 505.869 C 615.629 496.304 665.707 477.207 671.727 434.758 C 674.463 414.352 659.799 394.548 647.523 379.5 C 633.514 364.389 608.275 339.913 586.636 336.574 C 579.11 335.413 561.455 339.141 553.112 340.01 C 505.698 344.945 505.06 338.905 467.358 367.174 C 488.823 362.396 518.531 363.301 538.94 372.307 C 558.576 380.971 574.904 399.347 596.492 403.909 C 608.495 406.445 623.027 404.501 635.236 403.369 C 602.045 421.419 593.841 413.536 562.917 410.45 C 550.177 409.179 511.741 430.478 490.332 428.973 C 467.102 427.339 450.343 423.495 427.524 419.058 C 416.464 417.794 404.385 425.885 390.481 424.335 C 377.541 422.893 363.047 419.669 350.407 416.782 C 303.472 406.059 284.706 410.322 241.69 425.169 C 282.551 401.511 303.76 398.487 353.116 400.655 C 369.737 401.386 381.414 404.602 398.079 399.638 C 437.655 387.849 454.075 339.782 496.929 330.82 C 513.854 327.281 547.24 327.437 565.965 326.497 z M 516.144 405.827 C 530.389 401.31 533.839 387.516 519.317 381.809 C 509.559 387.579 498.949 401.132 516.144 405.827 z" fill="rgb(0,0,0)" transform="translate(0,0)"></path>
<path d="M 554.803 425.228 L 558.094 425.014 L 558.51 425.907 C 542.115 437.839 509.103 451.32 488.536 451.209 C 475.198 451.137 453.066 445.519 441.515 438.813 C 435.366 435.011 433.791 433.299 428.651 428.279 C 477.863 451.189 507.694 436.99 554.803 425.228 z" fill="rgb(0,0,0)" transform="translate(0,0)"></path>
<path d="M 1043.01 400.53 C 1047.2 398.838 1050.58 398.706 1053.61 395.426 C 1053.5 390.216 1050.16 390.906 1053.37 388.319 C 1060.78 382.354 1068.23 382.881 1076.97 384.122 C 1078.01 384.269 1079.88 381.622 1080.51 380.633 C 1080.83 380.631 1086.78 380.8 1086.41 380.854 C 1115.28 376.662 1111.1 392.238 1110.52 417.921 C 1105.36 425.582 1101.01 434.214 1096.16 442.279 C 1090.95 450.96 1080.29 461.215 1080.41 470.982 C 1072.07 475.38 1070.37 468.366 1061.4 469.926 L 1060.84 470.837 C 1059.65 467.854 1056.61 464.09 1054.85 459.729 C 1055.23 450.31 1059.71 444.505 1052 436.92 L 1052.23 434.729 C 1056.08 433.277 1057.43 432.671 1061.02 430.681 C 1061.69 429.392 1061.63 428.523 1061.88 426.98 C 1058.42 421.88 1056.42 424.84 1052.38 419.845 C 1053.8 416.718 1055.45 414.184 1055.13 410.884 L 1053.39 409.606 L 1051.36 409.934 C 1049.32 406.995 1045.55 403.241 1043.01 400.53 z" fill="url(#Gradient4)" transform="translate(0,0)"></path>
<path d="M 1417.51 1470.73 C 1427.98 1473.25 1438.72 1480.23 1447.47 1486.19 C 1487.07 1513.17 1500.14 1557.53 1517.89 1599.17 C 1522.44 1609.85 1532.28 1619.01 1537.74 1629.45 C 1497.37 1604.1 1479.22 1530.34 1448.96 1496.11 C 1437.99 1483.7 1431.27 1479.39 1417.51 1470.73 z" fill="url(#Gradient3)" transform="translate(0,0)"></path>
<path d="M 1040.11 375.783 C 1048.19 367.99 1072.8 362.893 1083.38 361.856 C 1089.57 361.25 1098.54 373.616 1112.26 378.079 C 1114.63 381.193 1111.61 401.418 1112.38 407.487 C 1112.94 411.845 1113.2 417.745 1113.85 422.424 C 1098.75 443.422 1106.28 449.295 1080.41 470.982 C 1080.29 461.215 1090.95 450.96 1096.16 442.279 C 1101.01 434.214 1105.36 425.582 1110.52 417.921 C 1111.1 392.238 1115.28 376.662 1086.41 380.854 C 1086.78 380.8 1080.83 380.631 1080.51 380.633 C 1079.88 381.622 1078.01 384.269 1076.97 384.122 C 1068.23 382.881 1060.78 382.354 1053.37 388.319 C 1050.16 390.906 1053.5 390.216 1053.61 395.426 C 1050.58 398.706 1047.2 398.838 1043.01 400.53 L 1039.62 397.804 C 1041.27 393.923 1039.84 381.2 1040.11 375.783 z" fill="rgb(252,251,252)" fill-opacity="0.384314" transform="translate(0,0)"></path>
<path d="M 961.983 285.127 C 947.62 281.319 933.385 277.818 919.318 272.99 C 874.68 257.668 819.108 248.762 772.039 257.272 L 771.368 256.552 C 812.331 242.404 858.333 243.479 899.96 255.212 C 919.833 260.813 942.037 271.471 961.854 279.145 L 961.983 285.127 z" fill="rgb(252,251,252)" transform="translate(0,0)"></path>
<path d="M 669.03 233.726 C 689.99 198.636 727.216 160.311 770.242 157.805 C 772.488 160.195 773.025 160.806 775.705 162.872 L 775.967 163.717 C 745.645 172.375 715.814 188.876 692.275 209.845 C 684.044 217.176 677.917 226.493 669.03 233.726 z" fill="url(#Gradient2)" transform="translate(0,0)"></path>
<path d="M 891.801 159.593 C 890.438 162.816 889.619 163.996 887.466 166.777 L 887.459 168.546 C 897.451 171.658 914.929 151.799 923.614 159.738 C 877.262 176.44 874.332 183.246 837.466 209.7 C 851.103 190.123 870.35 170.517 891.801 159.593 z M 869.581 181.17 C 872.992 178.892 879.41 175.16 881.462 172.02 L 880.79 170.86 L 879.128 170.462 C 875.233 173.235 869.203 177.115 867.718 181.532 L 869.581 181.17 z" fill="rgb(252,251,252)" fill-opacity="0.984314" transform="translate(0,0)"></path>
<path d="M 879.128 170.462 L 880.79 170.86 L 881.462 172.02 C 879.41 175.16 872.992 178.892 869.581 181.17 L 867.718 181.532 C 869.203 177.115 875.233 173.235 879.128 170.462 z" fill="rgb(252,251,252)" fill-opacity="0.835294" transform="translate(0,0)"></path>
<path d="M 679.019 285.279 C 692.666 284.745 717.091 286.473 730.712 289.517 C 725.722 292.191 722.075 295.413 717.666 298.942 C 704.24 297.31 690.718 297.735 677.224 298.007 C 677.48 294.045 678.787 290.969 679.019 285.279 z" fill="rgb(252,251,252)" transform="translate(0,0)"></path>
<path d="M 891.801 159.593 C 899.072 154.938 915.702 148.797 924.119 146.426 C 925.379 151.619 925.508 152.657 928.558 156.974 L 929.736 157.593 C 928.314 158.13 924.921 159.536 923.614 159.738 C 914.929 151.799 897.451 171.658 887.459 168.546 L 887.466 166.777 C 889.619 163.996 890.438 162.816 891.801 159.593 z" fill="rgb(252,251,252)" fill-opacity="0.584314" transform="translate(0,0)"></path>
<path d="M 730.712 289.517 C 734.356 290.07 737.547 290.412 741.069 291.543 C 744.473 293.862 745.555 294.274 749.517 295.491 C 751.874 298.083 751.694 298.104 751.484 302.434 C 751.401 303.942 751.304 305.449 751.194 306.955 C 741.359 302.058 728.718 300.827 717.666 298.942 C 722.075 295.413 725.722 292.191 730.712 289.517 z" fill="rgb(252,251,252)" fill-opacity="0.133333" transform="translate(0,0)"></path>
<path d="M 892.297 345.75 C 889.199 337.472 879.838 303.398 878.714 294.849 C 886.803 311.592 893.955 323.044 901.596 341.245 C 897.357 341.591 896.698 341.393 893.269 343.605 L 892.297 345.75 z" fill="rgb(252,251,252)" transform="translate(0,0)"></path>
<path d="M 1099.92 496.95 C 1103.81 497.81 1103.97 498.073 1107.22 500.566 C 1097.65 510.703 1073.05 534.172 1061.46 540.24 C 1077.16 523.91 1085.67 515.021 1099.92 496.95 z" fill="rgb(252,251,252)" transform="translate(0,0)"></path>
<path d="M 986.64 134.191 C 993.135 132.815 1003.61 131.721 1010.23 131.619 C 1012.05 134.252 1013.94 134.803 1016.84 136.216 L 1018.36 139.128 C 1008.89 141.321 997.178 143.765 987.446 144.027 C 988.295 142.017 989.225 140.098 990.292 138.195 C 989.099 136.838 987.882 135.503 986.64 134.191 z" fill="rgb(252,251,252)" fill-opacity="0.988235" transform="translate(0,0)"></path>
<path d="M 1051.36 409.934 L 1053.39 409.606 L 1055.13 410.884 C 1055.45 414.184 1053.8 416.718 1052.38 419.845 C 1056.42 424.84 1058.42 421.88 1061.88 426.98 C 1061.63 428.523 1061.69 429.392 1061.02 430.681 C 1052.55 424.936 1042.58 421.04 1032.81 413.789 C 1035.41 412.344 1034.48 412.964 1036.43 410.429 C 1041.77 409.922 1046.73 410.489 1051.36 409.934 z" fill="rgb(252,251,252)" fill-opacity="0.898039" transform="translate(0,0)"></path>
<path d="M 1106.37 488.634 C 1114.47 486.393 1114.65 470.91 1124.83 472.919 L 1126.62 475.633 C 1121.12 484.273 1114.01 492.891 1107.22 500.566 C 1103.97 498.073 1103.81 497.81 1099.92 496.95 C 1102.26 493.561 1103.51 491.544 1106.37 488.634 z" fill="url(#Gradient1)" transform="translate(0,0)"></path>
<path d="M 1126.29 455.672 C 1130.65 456.376 1133.07 456.656 1137.14 458.662 C 1133.34 465.682 1131.31 469.258 1126.62 475.633 L 1124.83 472.919 C 1114.65 470.91 1114.47 486.393 1106.37 488.634 C 1111.51 478.999 1120.35 466.409 1126.29 455.672 z" fill="rgb(252,251,252)" fill-opacity="0.968627" transform="translate(0,0)"></path>
<path d="M 978.283 946.674 C 960.475 928.86 945.392 913.022 932.791 890.796 C 939.552 896.441 947.295 907.178 953.274 914.286 C 962.823 925.64 970.188 933.249 981.331 942.991 L 978.283 946.674 z" fill="rgb(252,251,252)" fill-opacity="0.0235294" transform="translate(0,0)"></path>
<path d="M 959.548 1655.76 L 958.125 1655.53 C 950.525 1637.38 951.804 1596.8 952.9 1576.94 L 954.729 1576.31 L 954.78 1577.15 C 955.276 1586.93 954.008 1600.28 954.186 1611.47 C 954.412 1625.72 959.244 1644.51 959.548 1655.76 z" fill="rgb(0,0,0)" fill-opacity="0.933333" transform="translate(0,0)"></path>
<path d="M 964.952 334.669 C 966.771 333.788 970.718 332.746 972.916 332.085 C 974.268 337.353 974.684 338.908 977.064 343.754 C 971.216 345.503 964.335 345.641 958.274 345.18 C 955.457 342.509 955.474 343.303 954.5 340.079 L 955.939 338.472 C 960.402 337.801 960.966 337.729 965.081 336.03 L 964.952 334.669 z" fill="rgb(252,251,252)" fill-opacity="0.964706" transform="translate(0,0)"></path>
<path d="M 845.485 363.835 C 850.647 373.288 862.162 396.087 862.01 406.265 L 861.402 406.819 C 859.614 405.235 860.022 406.19 859.832 404.368 C 858.848 394.942 845.833 381.016 842.569 372.21 L 844.146 371.341 C 844.533 368.428 844.847 366.708 845.485 363.835 z" fill="rgb(252,251,252)" fill-opacity="0.980392" transform="translate(0,0)"></path>
<path d="M 1010.23 131.619 C 1019.21 131.742 1026.85 130.783 1036.83 131.093 C 1039.45 132.032 1041.62 132.749 1044.14 134.009 L 1044.03 135.083 L 1042.41 136.15 C 1034.09 136.969 1026.54 138.2 1018.36 139.128 L 1016.84 136.216 C 1013.94 134.803 1012.05 134.252 1010.23 131.619 z" fill="rgb(252,251,252)" fill-opacity="0.0313725" transform="translate(0,0)"></path>
<path d="M 1790.87 799.36 C 1792.89 798.574 1814.88 797.416 1819.66 796.804 L 1828 797.38 L 1828.64 798.695 C 1824.44 799.527 1797.85 805.042 1795.75 804.124 C 1794.45 802.388 1792.52 800.853 1790.87 799.36 z" fill="rgb(252,251,252)" fill-opacity="0.141176" transform="translate(0,0)"></path>
<path d="M 931.519 337.169 C 944.939 337.165 951.831 337.411 964.952 334.669 L 965.081 336.03 C 960.966 337.729 960.402 337.801 955.939 338.472 L 954.5 340.079 C 955.474 343.303 955.457 342.509 958.274 345.18 C 946.436 343.94 941.685 342.885 931.519 337.169 z" fill="rgb(252,251,252)" transform="translate(0,0)"></path>
<path d="M 770.242 157.805 C 776.15 156.698 790.941 155.97 797.894 155.22 L 799.132 158.125 C 794.626 159.235 779.743 163.266 775.967 163.717 L 775.705 162.872 C 773.025 160.806 772.488 160.195 770.242 157.805 z" fill="rgb(252,251,252)" fill-opacity="0.317647" transform="translate(0,0)"></path>
<path d="M 952.346 434.061 C 957.1 438.708 963.266 445.052 968.367 448.986 C 965.676 449.239 962.643 449.217 960.328 450.249 C 955.823 446.993 954.28 445.911 950.555 441.856 C 950.455 436.246 949.515 437.468 952.346 434.061 z" fill="rgb(252,251,252)" fill-opacity="0.223529" transform="translate(0,0)"></path>
<path d="M 1056.47 129.453 C 1070.89 127.792 1085.73 125.776 1100.2 125.317 C 1098.01 126.812 1064.19 133.079 1060.45 133.075 C 1056.62 131.114 1057.55 132.528 1056.47 129.453 z" fill="rgb(252,251,252)" transform="translate(0,0)"></path>
<path d="M 98.4616 481.995 C 101.332 475.541 104.182 470.002 108.893 464.685 C 110.449 466.488 110.696 467.464 112.359 467.95 C 109.028 472.829 105.027 477.427 102.616 482.656 L 98.4616 481.995 z" fill="rgb(252,251,252)" fill-opacity="0.984314" transform="translate(0,0)"></path>
<path d="M 1036.83 131.093 L 1056.47 129.453 C 1057.55 132.528 1056.62 131.114 1060.45 133.075 C 1053.07 136.107 1049.79 134.687 1042.41 136.15 L 1044.03 135.083 L 1044.14 134.009 C 1041.62 132.749 1039.45 132.032 1036.83 131.093 z" fill="rgb(252,251,252)" fill-opacity="0.286275" transform="translate(0,0)"></path>
<path d="M 98.4616 481.995 L 102.616 482.656 C 99.3068 491.483 97.6273 497.461 96.4076 506.928 L 93.3935 503.85 C 94.8076 495.396 96.1647 490.221 98.4616 481.995 z" fill="rgb(252,251,252)" fill-opacity="0.65098" transform="translate(0,0)"></path>
<path d="M 1419.14 323.629 C 1412.91 322.172 1402.56 318.246 1396.5 315.955 C 1403.63 314.93 1419.95 320.009 1426.85 322.942 C 1423.87 322.717 1421.52 322.088 1419.14 323.629 z" fill="rgb(252,251,252)" fill-opacity="0.721569" transform="translate(0,0)"></path>
<path d="M 961.854 279.145 C 969.323 281.48 979.629 284.504 986.796 287.532 C 977.725 287.538 970.94 287.161 961.983 285.127 L 961.854 279.145 z" fill="rgb(252,251,252)" fill-opacity="0.235294" transform="translate(0,0)"></path>
<path d="M 325.197 716.799 C 316.713 712.856 306.869 709.156 298.111 705.643 L 298.841 704.255 C 305.202 705.189 317.226 708.816 322.705 712.291 L 325.197 716.799 z" fill="rgb(252,251,252)" fill-opacity="0.203922" transform="translate(0,0)"></path>
<path d="M 322.705 712.291 C 332.243 715.93 334.609 717.448 343.263 723.193 L 342.254 726.244 C 336.143 722.565 331.578 719.944 325.197 716.799 L 322.705 712.291 z" fill="rgb(252,251,252)" fill-opacity="0.101961" transform="translate(0,0)"></path>
<path d="M 968.367 448.986 L 976.945 455.864 L 974.512 458.655 C 968.552 456.383 965.207 454.205 960.328 450.249 C 962.643 449.217 965.676 449.239 968.367 448.986 z" fill="rgb(252,251,252)" fill-opacity="0.00784314" transform="translate(0,0)"></path>
<path d="M 1419.14 323.629 C 1421.52 322.088 1423.87 322.717 1426.85 322.942 L 1437.95 327.245 L 1435.54 331.683 L 1419.14 323.629 z" fill="rgb(252,251,252)" fill-opacity="0.14902" transform="translate(0,0)"></path>
<path d="M 944.843 426.053 C 947.213 428.631 949.852 431.66 952.346 434.061 C 949.515 437.468 950.455 436.246 950.555 441.856 C 948.111 439.769 946.111 437.888 943.792 435.66 C 944.239 434.719 944.65 427.829 944.843 426.053 z" fill="rgb(252,251,252)" fill-opacity="0.0627451" transform="translate(0,0)"></path>
<path d="M 1250.03 1886.67 C 1256.74 1889.21 1263.39 1893.53 1269.24 1897.65 C 1266.09 1898 1249.1 1889.29 1246.24 1887.05 L 1250.03 1886.67 z" fill="rgb(252,251,252)" fill-opacity="0.65098" transform="translate(0,0)"></path>
<path d="M 93.3935 503.85 L 96.4076 506.928 C 96.6142 515.297 96.9543 522.033 95.8757 530.408 C 93.2525 521.466 92.7094 513.043 93.3935 503.85 z" fill="rgb(252,251,252)" fill-opacity="0.258824" transform="translate(0,0)"></path>
<path d="M 797.894 155.22 C 804.039 155.176 812.328 151.434 818.829 149.861 L 818.697 150.738 C 811.954 155.393 807.2 156.617 799.132 158.125 L 797.894 155.22 z" fill="rgb(252,251,252)" transform="translate(0,0)"></path>
<path d="M 976.945 455.864 C 979.136 457.273 994.518 466.734 995.398 467.863 C 991.487 466.662 977.937 460.932 974.512 458.655 L 976.945 455.864 z" fill="rgb(252,251,252)" transform="translate(0,0)"></path>
<path d="M 1032.81 413.789 C 1028.85 411.999 1025.72 411.052 1022.88 407.822 L 1023.56 406.881 C 1028.49 406.842 1031.79 408.611 1036.43 410.429 C 1034.48 412.964 1035.41 412.344 1032.81 413.789 z" fill="rgb(252,251,252)" fill-opacity="0.0313725" transform="translate(0,0)"></path>
<path d="M 1636.99 586.048 C 1629.7 582.264 1623.07 579.679 1616.04 575.115 C 1626.44 577.84 1629.63 579.047 1638.74 584.18 L 1636.99 586.048 z" fill="rgb(252,251,252)" fill-opacity="0.145098" transform="translate(0,0)"></path>
<path d="M 1646.83 487.109 C 1650.18 487.809 1652.24 487.705 1654.58 489.697 C 1648.45 490.566 1645.63 489.504 1639.55 488.117 L 1646.83 487.109 z" fill="rgb(252,251,252)" fill-opacity="0.0392157" transform="translate(0,0)"></path>
<path d="M 1819.66 796.804 C 1825.75 796.148 1831.68 795.187 1837.62 796.982 C 1835.86 798.221 1830.88 798.638 1828.64 798.695 L 1828 797.38 L 1819.66 796.804 z" fill="rgb(252,251,252)" fill-opacity="0.262745" transform="translate(0,0)"></path>
<path d="M 1247.6 1470.64 L 1249.85 1471.91 L 1239.28 1483.43 C 1242.41 1476.93 1243.09 1476.12 1247.6 1470.64 z" fill="rgb(0,0,0)" fill-opacity="0.627451" transform="translate(0,0)"></path>
<metadata><recraft-signature>{"signed_by": "recraft", "signature_b64": "j91UHcYGIXu9t2QyR081A53NO+N3ZHXb/3UEPdWUjGaKk5c6Itexcuqzz39wMvDSFuhxuVI7BAZE4ttNmzNzCQ==", "signing_algo": "Ed25519"}</recraft-signature></metadata></svg>